M48
;Layer_Color=9474304
;FILE_FORMAT=4:4
METRIC,LZ
T10F00S00C0.5000
%
G90
G05
T10
G00X00105237Y00668907
M15
G01X00111084Y0067007
G01X00116789Y00671801
G01X00122297Y00674082
G01X00127555Y00676892
G01X00132512Y00680205
G01X0013712Y00683986
G01X00141336Y00688202
G01X00145118Y00692811
G01X0014843Y00697768
G01X00151241Y00703026
G01X00153522Y00708534
G01X00155253Y00714239
G01X00156416Y00720086
G01X00157Y00726019
G01X00157Y012178
G01X000025Y01217504
G01X000025Y00668323
G01X00099304Y00668323
G01X00105237Y00668907
M16
G00X04201493Y-00002005
M15
G01X042025Y0
G01X042025Y0122
G01X04202005Y01221494
G01X042Y012225
G01X0Y012225
G01X-00001493Y01222005
G01X-000025Y0122
G01X-000025Y0
G01X-00002005Y-00001493
G01X0Y-000025
G01X042Y-000025
G01X04201493Y-00002005
M16
M17
M30
