M48
;Layer_Color=9474304
;FILE_FORMAT=4:4
METRIC,LZ
;TYPE=PLATED
T01F00S00C0.2000
T02F00S00C0.3048
T03F00S00C0.8000
T05F00S00C1.0000
T06F00S00C1.1000
T07F00S00C1.5000
T08F00S00C2.1000
T09F00S00C3.2000
%
T01
X0415975Y001145
X0414875
X0413775
Y001255
X0414875
X0415975
T02
X03885575Y00096
X03893Y0011075
X038465Y000775
X03665438Y00112688
X0393525Y000825
X041375Y000455
X0414475Y0019625
X041545Y0021375
X0417525Y0025625
X041785Y0029375
X0418625Y003315
X0418625Y003465
X0413675Y0034625
X0414325Y0036475
X04116Y003775
X041035Y0035375
X041185Y0029375
X041485Y0040225
X041435Y0045125
X0404525Y0040225
X0403425Y00408
X04020125Y00227092
X0396033Y0022933
X03922Y001795
X0393925Y0012275
X0395275Y0012275
X038615Y001255
X038945Y00163
X038795Y00185
X0390625Y00213
X0384175Y0021525
X0385Y002305
X038115Y0022475
X0381775Y0020625
X03802Y0024075
X0381425Y00253
X03817Y0027425
X03802Y0029025
X03787
X0377075Y002525
X037645Y0023925
X03747375Y00240625
X0374275Y0020625
X0372775
X0371825Y002215
X0371325Y0027425
X03687Y00276125
Y00261125
X0367475Y0020725
X0365975Y002075
X03645Y00207
Y0015375
X03619938Y00270063
X03626063Y00352562
X03662563Y00321312
X03694125Y0036225
X03668492Y00406508
X0385275Y0032275
X0345275
X0341375Y00356
X0342425Y0042075
X03205Y004065
X0322575Y0038425
X0320075Y0036
X0325275Y0032275
X03205Y001665
X0322575Y0014425
X0320075Y0012
X0341375Y00117
X0342425Y0018175
X02975Y001665
X0299575Y0014425
X0297075Y0012
X0276575Y0014425
X02745Y001665
X0274075Y0012
Y0036
X0276575Y0038425
X02745Y004065
X0285275Y0032275
X0297075Y0036
X0299575Y0038425
X02975Y004065
X0257375Y00275
X02564Y00248
X024765Y00273
X0245275Y0032275
X023723Y00266
X0235275Y0012275
X0207575Y0014425
X02055Y001665
X0205075Y0012
X021115Y00242
X021205Y00284
X0215725Y0026975
X0217225
X02082624Y0031175
X0205225Y00375
X02033082Y00416082
X0202025Y002745
X0225275Y0032275
X0185275
X0184575Y0038425
X01825Y004065
X0182075Y0036
X01825Y001665
X0184575Y0014425
X0182075Y0012
X0161575Y0014425
X01595Y001665
X0159075Y0012
Y0036
X0161575Y0038425
X01595Y004065
X0165275Y0032275
X0138575Y0038425
X01365Y004065
X0136075Y0036
X0125275Y0032275
X01365Y001665
X0138575Y0014425
X0136075Y0012
X0115275Y0012275
X0111375Y00116
X0112425Y0018075
X0111375Y00356
X0112425Y0042075
X00905Y004065
X0092575Y0038425
X0090075Y0036
X0085275Y0032275
X00905Y001665
X0092575Y0014425
X0090075Y0012
X0069575Y0014425
X00675Y001665
X0067075Y0012
X0065275Y0032275
X0067075Y0036
X0069575Y0038425
X00675Y004065
X00445Y004065
X0046575Y0038425
X0044075Y0036
X0045275Y0032275
X00445Y001665
X0046575Y0014425
X0044075Y0012
X0027975Y002375
X0026475Y0023875
X0019125Y002615
X001775Y0026875
X0019125Y003475
X000603Y00279
X000895Y0047125
X0026875Y0050925
X0033775
X0032275Y0056746
X00307Y006045
X00267906Y0060525
X002275
X00209Y00547
X00172755Y00574995
X00097Y0063725
X0025275Y0072275
X0036025Y006165
X00415Y0061675
X0043Y006165
X0042675Y0053205
X0036025Y0052005
X0055275Y0052275
X0065275Y0072275
X0085275
X009185Y0070725
X0075275Y0052275
X0115275
X0135275
X01361448Y00600127
X0138575Y0062425
X01365Y006465
X0145275Y0072275
X0125275
X01361448Y00840105
X0138575Y0086425
X01365Y008865
X01595Y008865
X0161575Y0086425
X01591098Y00840105
X0165275Y0072275
X01595Y006465
X0161575Y0062425
X01591448Y00600127
X0155275Y0052275
X0175275
X01821448Y00600127
X0184575Y0062425
X01825Y006465
X0185275Y0072275
X0184575Y0086425
X01825Y008865
X01821448Y00840105
X02051448
X0207575Y0086425
X02055Y008865
X0205275Y0072275
X02055Y006465
X0207575Y0062425
X02051448Y00600127
X0215275Y0052275
X02281448Y00600127
X0230575Y0062425
X02285Y006465
X0225275Y0072275
X02281448Y00840105
X0230575Y0086425
X02285Y008865
X02515Y008865
X0253575Y0086425
X0252625Y00827
X02528Y00804
X02520904Y00799596
X02515Y00804
X02507904Y00799596
X02502Y00804
X02492658Y00801842
X025345Y00799
X025475
X02511448Y00840105
X0247825Y00718
X0248725Y00678
X02495375Y00677125
X02503375
X02511375Y00672045
X02524875Y00678125
X02532875
X0254125Y0067858
X02558375Y00687375
X02585Y0072875
X027035Y0072625
X0271675Y0070775
X0272325Y0071283
X0270925Y006845
X0270425Y006775
X0269075Y0068525
X02523Y0061425
X024965Y00634
X02498698Y00590105
X0235275Y0052275
X0275275
X0273475Y0059
X0272975Y007375
X0285275Y0072275
X02975Y006465
X0299575Y0062425
X02971448Y00600127
X0295275Y0052275
X0305275Y0072275
X0299575Y0086425
X02975Y008865
X02971448Y00840127
X03201448
X0322575Y0086425
X03205Y008865
X0325275Y0072275
X03205Y006465
X0322575Y0062425
X03201448Y00600127
X0315275Y0052275
X0335275
X03431448Y00600127
X0345575Y0062425
X03435Y006465
X0345275Y0072275
X03431448Y00840127
X0345575Y0086425
X03435Y008865
X0365425Y0090075
X0364375Y00836
X0362375Y0072125
X03608Y0067225
X0365425Y00660795
X0366475Y0062025
X0367275
X0368075
X0369425
X0370225
X0371025
X0371825
X0372425Y0056875
X0371125Y00521
X0370475Y00526
X0369825Y00521
X0369175Y00526
X0368525Y00521
X0367875Y00526
X0367225Y00521
X0365925
X0366575Y0053575
X036345
Y0052075
Y0055375
Y0056875
X0355275Y0052275
X0375275
X0381845Y00726574
X0385275Y0072275
X0405275
X04082Y00647
X0410725Y0065825
X041435Y0064725
X0414325Y00629
X0413Y0062575
X04153Y00605
X04169Y0062075
X0416875Y005785
X04159625Y00554
X0413525Y00544625
X0412525Y00569625
X04111Y0059375
X04103Y0059725
X0409225Y0059625
X04082Y00574
X04153Y006745
X04159625Y00794
X0416875Y008185
X04153Y00845
X04169Y0086075
X0414325Y00869
X0413Y0086575
X04135Y0089675
X040995Y008985
X04082Y00887
X0409225Y0083625
X04103Y0083725
X04111Y0083375
X0412525Y00809625
X0413525Y00784625
X04082Y00814
X0395275Y0052275
Y0092275
X03923Y01016624
X03929625Y01034
X0393875Y010585
X03923Y01085
X03939Y0110075
X0409225Y0107625
X04103Y0107725
X04111Y0107375
X0412525Y01049625
X0413525Y01024625
X04153Y010155
X04159625Y01034
X0416875Y010585
X04153Y01085
X04169Y0110075
X0414325Y01109
X0413Y0110575
X041435Y0112725
X04096Y011365
X04082Y01054
X04113Y00995625
X0390525Y01024625
X0389525Y01049625
X03881Y0107375
X03873Y0107725
X03867006Y01081531
X03852Y01054
X0386225Y00996
X03852Y01127
X038485Y0114225
X03866Y011365
X039135Y0112725
X0391325Y01109
X039Y0110575
X03706376Y0110075
X03693Y01085
X0368325Y01109
X0367Y0110575
X036835Y0112725
X0369625Y0114675
X0370625Y0114083
X03696375Y01167125
X03636Y011365
X03622Y01127
X0363225Y0107625
X03643Y0107725
X03651Y0107375
X0366525Y01049625
X0367525Y01024625
X03693Y010155
X03699625Y01034
X0370875Y010585
X03622Y01054
X0375275Y0092275
X03463Y010155
X03469625Y01034
X0347875Y010585
X03463Y01085
X03479Y0110075
X0345325Y01109
X0344Y0110575
X034535Y0112725
X03406Y011365
X03392Y01127
X0340225Y0107625
X03413Y0107725
X03421Y0107375
X0343525Y01049625
X0344525Y01024625
X03392Y01054
X0323375Y01071
X0321875Y010945
X0320375
X03177Y0108275
X0318525Y0104075
X032035Y0093775
X0303475Y0101825
X0301925Y011308
X0295275Y0092275
X0275275
X0271425Y0113075
X025335Y0112725
X0253325Y01109
X0252Y0110575
X02501Y0107375
X02493Y0107725
X0248225Y0107625
X02472Y01054
X025145Y01049625
X025305Y010405
X0256275Y010295
X02563Y010145
X0257475Y0101825
X02486Y011365
X023035Y0112725
X0230325Y01109
X0229Y0110575
X02313Y01085
X02329Y0110075
X0232875Y010585
X02319625Y01034
X02313Y010155
X0229525Y01024625
X0228525Y01049625
X02271Y0107375
X02263Y0107725
X0225225Y0107625
X02242Y01054
X02256Y011365
X020735Y0112725
X0207325Y01109
X0206Y0110575
X02083Y01085
X02099Y0110075
X0209875Y010585
X02089625Y01034
X02083Y010155
X0206525Y01024625
X0205525Y01049625
X02041Y0107375
X02033Y0107725
X0202225Y0107625
X02012Y01054
X02026Y011365
X018435Y0112725
X0184325Y01109
X0183Y0110575
X01853Y01085
X01869Y0110075
X0186875Y010585
X01859625Y01034
X01853Y010155
X0183525Y01024625
X0182525Y01049625
X01811Y0107375
X01803Y0107725
X0179225Y0107625
X01782Y01054
X01796Y011365
X016135Y0112725
X0161325Y01109
X016Y0110575
X01623Y01085
X01639Y0110075
X0163875Y010585
X01629625Y01034
X01623Y010155
X0160525Y01024625
X0159525Y01049625
X01581Y0107375
X01573Y0107725
X0156225Y0107625
X01552Y01054
X01566Y011365
X013835Y0112725
X0138325Y01109
X0137Y0110575
X01393Y01085
X01409Y0110075
X0140875Y010585
X01399625Y01034
X01393Y010155
X0137525Y01024625
X0136525Y01049625
X01351Y0107375
X01343Y0107725
X0133225Y0107625
X01322Y01054
X01336Y011365
X0115275Y0092275
X0075275
X0055275
X0035275
X0035056Y0114875
X004045Y011265
Y0110975
X00421375
Y011265
X0043825
Y0110975
X0043596Y0114875
X0045216Y0114875
T03
X000873Y000765
X001127
Y001019
X000873
X021573
Y000765
X021827
Y001019
X023873
Y000765
X024127
Y001019
X0376705Y001073
X0379245
X0396Y0025
X0398
X04
X0402
X0404
X0406
X0379245Y001327
X0376705
X024127Y001273
X023873
Y001527
X024127
Y001781
X023873
Y002035
X024127
X021827
X021573
Y001781
Y001527
Y001273
X021827
Y001527
Y001781
X001127
Y001527
Y001273
X000873
Y001527
Y001781
Y002035
X001127
X0026372Y0069198
X0028912
X0031452
X0033992
X0036532
X0039072
X0041612
X0044152
X0048216
X0050756
X0053296
X0055836
X0058376
X0060916
X0063456
X0065996
X0071076
X0073616
X0076156
X0078696
X0081236
X0083776
X0086316
X0088856
X0096396
X0098936
X0098966Y0081948
Y0084488
Y0087028
Y0089568
X0096426Y0089543
Y0087003
Y0084463
Y0081948
X026173Y007143
X026427
Y006889
X026173
Y006635
X026427
Y006381
Y006127
X026173
Y006381
Y005873
Y005619
Y005365
X026427
Y005619
Y005873
X0376705
X0379245
Y006127
X0376705
Y006381
Y006635
X0379245
Y006381
Y005619
Y005365
X0376705
Y005619
X029327Y010292
Y010546
X029073
Y0108
X029327
Y011054
X029073
Y011308
X029327
X028127
X027873
Y011054
Y0108
Y010546
X028127
Y0108
Y011054
Y010292
X027873
X029073
X0098966Y0102268
Y0104808
Y0107348
Y0109888
Y0112428
X0096426Y0112403
Y0109863
Y0107323
Y0104783
Y0102243
Y0099703
Y0097163
Y0094623
Y0092083
X0098966Y0092108
Y0094648
Y0097188
Y0099728
X0088856Y0117443
X0086316
X0083776
X0081236
X0078696
X0076156
X0071076
X0068536
X0065996
X0063456
X0060916
X0058376
X0055836
X0053296
X0048235
X0045695
X0043155
X0040615
X0038075
X0035535
T05
X0355Y0012
Y0036
X0332
Y0012
X0309
X0286
Y0036
X0309Y0036
X0263
Y0012
X0194
Y0036
X0171Y0036
Y0012
X0148
X0125
Y0036
X0148Y0036
X0102
X0079Y0036
Y0012
X0102
X0056
Y0036
X0033Y0036
Y0012
X0125Y006
X0148
Y0084
X0125Y0084
X0171
Y006
X0194
X0217
Y0084
X0194Y0084
X024
Y006
X0286
X0309
Y0084
X0286Y0084
X0332
Y006
X0355
Y0084
X0401
Y006
X0401Y0108
X0378
X0355
X0332
X024
X0217
X0194
X0171
X0148
X0125
T06
X03812Y00335
X0378
X03748
Y00385
X0378
X03812
X02432
X024
X02368
Y00335
X024
X02432
X02202
X0217
X02138
Y00385
X0217
X02202
X00132
X001
X00068
Y00335
X001
X00132
X02598Y00815
X0263
X02662
Y00865
X0263
X02598
X03748
X0378
X03812
Y00815
X0378
X03748
X03122Y01055
X0309
X03058
Y01105
X0309
X03122
X02662
X0263
X02598
Y01055
X0263
X02662
T07
X00295999Y00085999
X00364001
X00525999
X00594001
X00755999
X00824001
X00985999
X01054001
X01215999
X01284001
X01445999
X01514001
X01675999
X01744001
X01905999
X01974001
X02595999
X02664001
X02825999
X02894001
X03055999
X03124001
X03285999
X03354001
X03515999
X03584001
X03584001Y00153999
X03584001Y00325999
X03584001Y00393999
X03515999Y00394001
Y00325999
X03354001
X03354001Y00393999
X03285999Y00394001
Y00325999
Y00154001
X03354001Y00153999
X03515999Y00154001
X03124001Y00153999
X03055999Y00154001
X02894001Y00153999
X02825999Y00154001
Y00325999
Y00394001
X02894001Y00393999
X02894001Y00325999
X03055999Y00325999
Y00394001
X03124001Y00393999
X03124001Y00325999
X02664001
X02664001Y00393999
X02595999Y00394001
Y00325999
Y00154001
X02664001Y00153999
X01974001
X01974001Y00325999
X01974001Y00393999
X01905999Y00394001
Y00325999
X01744001Y00325999
X01744001Y00393999
X01675999Y00394001
Y00325999
Y00154001
X01744001Y00153999
X01905999Y00154001
X01514001Y00153999
X01445999Y00154001
X01284001Y00153999
X01215999Y00154001
Y00325999
Y00394001
X01284001Y00393999
X01284001Y00325999
X01445999Y00325999
Y00394001
X01514001Y00393999
X01514001Y00325999
X01054001
X01054001Y00393999
X00985999Y00394001
Y00325999
X00824001Y00325999
X00824001Y00393999
X00755999Y00394001
Y00325999
Y00154001
X00824001Y00153999
X00985999Y00154001
X01054001Y00153999
X00594001
X00525999Y00154001
X00364001Y00153999
X00364001Y00325999
X00364001Y00393999
X00525999Y00394001
Y00325999
X00594001
X00594001Y00393999
X00295999Y00394001
Y00325999
Y00154001
X01215999Y00565999
Y00634001
X01284001Y00633999
X01284001Y00565999
X01445999
Y00634001
X01514001Y00633999
X01514001Y00565999
Y00805999
X01514001Y00873999
X01445999Y00874001
Y00805999
X01284001Y00805999
X01284001Y00873999
X01215999Y00874001
Y00805999
X01675999
Y00874001
X01744001Y00873999
X01744001Y00805999
X01905999Y00805999
Y00874001
Y00634001
Y00565999
X01744001
X01744001Y00633999
X01675999Y00634001
Y00565999
X01974001
X01974001Y00633999
X02135999Y00634001
Y00565999
X02204001
X02204001Y00633999
X02204001Y00805999
X02204001Y00873999
X02135999Y00874001
Y00805999
X01974001Y00805999
X01974001Y00873999
X02365999Y00874001
Y00805999
X02434001
X02434001Y00873999
Y00633999
X02434001Y00565999
X02365999
Y00634001
X02825999
Y00565999
X02894001
X02894001Y00633999
X03055999Y00634001
Y00565999
X03124001
X03124001Y00633999
X03124001Y00805999
X03124001Y00873999
X03055999Y00874001
Y00805999
X02894001Y00805999
X02894001Y00873999
X02825999Y00874001
Y00805999
X03285999
Y00874001
X03354001Y00873999
X03354001Y00805999
X03515999Y00805999
Y00874001
Y00634001
Y00565999
X03354001
X03354001Y00633999
X03285999Y00634001
Y00565999
X03584001
X03584001Y00633999
X03584001Y00805999
X03584001Y00873999
X03975999Y00874001
Y00805999
X04044001
X04044001Y00873999
Y00633999
X04044001Y00565999
X03975999
Y00634001
X03975999Y01045999
Y01114001
X04044001Y01113999
X04044001Y01045999
X03814001
X03814001Y01113999
X03745999Y01114001
Y01045999
X03584001
X03584001Y01113999
X03515999Y01114001
Y01045999
X03354001
X03354001Y01113999
X03285999Y01114001
Y01045999
X02434001
X02434001Y01113999
X02365999Y01114001
Y01045999
X02204001
X02204001Y01113999
X02135999Y01114001
Y01045999
X01974001
X01974001Y01113999
X01905999Y01114001
Y01045999
X01744001
X01744001Y01113999
X01675999Y01114001
Y01045999
X01514001
X01514001Y01113999
X01445999Y01114001
Y01045999
X01284001
X01284001Y01113999
X01215999Y01114001
Y01045999
T08
X04075Y0036
X03945
T09
X0005275Y004965
Y006235
M30
