%TF.GenerationSoftware,Altium Limited,Altium Designer,25.6.2 (33)*%
G04 Layer_Color=255*
%FSLAX45Y45*%
%MOMM*%
%TF.SameCoordinates,AEC4D83D-968C-4175-8A4A-4F5F7F25AAED*%
%TF.FilePolarity,Positive*%
%TF.FileFunction,Pads,Bot*%
%TF.Part,Single*%
G01*
G75*
%TA.AperFunction,SMDPad,CuDef*%
G04:AMPARAMS|DCode=11|XSize=2.41mm|YSize=3.1mm|CornerRadius=0.30125mm|HoleSize=0mm|Usage=FLASHONLY|Rotation=90.000|XOffset=0mm|YOffset=0mm|HoleType=Round|Shape=RoundedRectangle|*
%AMROUNDEDRECTD11*
21,1,2.41000,2.49750,0,0,90.0*
21,1,1.80750,3.10000,0,0,90.0*
1,1,0.60250,1.24875,0.90375*
1,1,0.60250,1.24875,-0.90375*
1,1,0.60250,-1.24875,-0.90375*
1,1,0.60250,-1.24875,0.90375*
%
%ADD11ROUNDEDRECTD11*%
%TA.AperFunction,ComponentPad*%
%ADD40C,1.50000*%
G04:AMPARAMS|DCode=41|XSize=1.5mm|YSize=1.5mm|CornerRadius=0.1875mm|HoleSize=0mm|Usage=FLASHONLY|Rotation=0.000|XOffset=0mm|YOffset=0mm|HoleType=Round|Shape=RoundedRectangle|*
%AMROUNDEDRECTD41*
21,1,1.50000,1.12500,0,0,0.0*
21,1,1.12500,1.50000,0,0,0.0*
1,1,0.37500,0.56250,-0.56250*
1,1,0.37500,-0.56250,-0.56250*
1,1,0.37500,-0.56250,0.56250*
1,1,0.37500,0.56250,0.56250*
%
%ADD41ROUNDEDRECTD41*%
G04:AMPARAMS|DCode=42|XSize=1.5mm|YSize=1.5mm|CornerRadius=0.375mm|HoleSize=0mm|Usage=FLASHONLY|Rotation=0.000|XOffset=0mm|YOffset=0mm|HoleType=Round|Shape=RoundedRectangle|*
%AMROUNDEDRECTD42*
21,1,1.50000,0.75000,0,0,0.0*
21,1,0.75000,1.50000,0,0,0.0*
1,1,0.75000,0.37500,-0.37500*
1,1,0.75000,-0.37500,-0.37500*
1,1,0.75000,-0.37500,0.37500*
1,1,0.75000,0.37500,0.37500*
%
%ADD42ROUNDEDRECTD42*%
%ADD43C,1.60000*%
%ADD44O,1.60000X3.60000*%
%ADD45C,2.80000*%
%ADD46O,3.20000X3.30000*%
%ADD47C,1.80000*%
%ADD48O,3.60000X1.60000*%
D11*
X41487500Y1200000D02*
D03*
D40*
X26427002Y6127000D02*
D03*
Y6889000D02*
D03*
Y7143000D02*
D03*
X26173001Y6127000D02*
D03*
Y6635000D02*
D03*
Y6889000D02*
D03*
X26427002Y6635000D02*
D03*
X26173001Y6381000D02*
D03*
X26427002D02*
D03*
Y5365000D02*
D03*
X26173001Y5873000D02*
D03*
Y5619000D02*
D03*
Y5365000D02*
D03*
X26427002Y5873000D02*
D03*
Y5619000D02*
D03*
X24127000Y765000D02*
D03*
X23873001D02*
D03*
X24127000Y1273000D02*
D03*
X23873001D02*
D03*
X24127000Y1527000D02*
D03*
X23873001Y1781000D02*
D03*
Y1527000D02*
D03*
Y1019000D02*
D03*
X24127000Y2035000D02*
D03*
Y1781000D02*
D03*
Y1019000D02*
D03*
X21827000Y765000D02*
D03*
X21573001D02*
D03*
X21827000Y1273000D02*
D03*
X21573001D02*
D03*
X21827000Y1527000D02*
D03*
X21573001Y1781000D02*
D03*
Y1527000D02*
D03*
Y1019000D02*
D03*
X21827000Y2035000D02*
D03*
Y1781000D02*
D03*
Y1019000D02*
D03*
X1127001Y765000D02*
D03*
X873001D02*
D03*
X1127001Y1273000D02*
D03*
X873001D02*
D03*
X1127001Y1527000D02*
D03*
X873001Y1781000D02*
D03*
Y1527000D02*
D03*
Y1019000D02*
D03*
X1127001Y2035000D02*
D03*
Y1781000D02*
D03*
Y1019000D02*
D03*
X37924500Y5365000D02*
D03*
X37670502D02*
D03*
X37924500Y5873000D02*
D03*
X37670502D02*
D03*
X37924500Y6127000D02*
D03*
X37670502Y6381000D02*
D03*
Y6127000D02*
D03*
Y5619000D02*
D03*
X37924500Y6635000D02*
D03*
Y6381000D02*
D03*
Y5619000D02*
D03*
X29327002Y10546000D02*
D03*
X29073001D02*
D03*
X29327002Y10800000D02*
D03*
X29073001Y11054000D02*
D03*
Y10800000D02*
D03*
Y10292000D02*
D03*
X29327002Y11308000D02*
D03*
Y11054000D02*
D03*
Y10292000D02*
D03*
X28127002Y10546000D02*
D03*
X27873001D02*
D03*
X28127002Y10800000D02*
D03*
X27873001Y11054000D02*
D03*
Y10800000D02*
D03*
Y10292000D02*
D03*
X28127002Y11308000D02*
D03*
Y11054000D02*
D03*
Y10292000D02*
D03*
X37924500Y1073000D02*
D03*
X37670502D02*
D03*
X37924500Y1327000D02*
D03*
X7361601Y6919800D02*
D03*
X7615601D02*
D03*
X7869601D02*
D03*
X8123601D02*
D03*
X8377601D02*
D03*
X8885601D02*
D03*
X8631601D02*
D03*
X5075601D02*
D03*
X5329601D02*
D03*
X5583601D02*
D03*
X5837601D02*
D03*
X6091601D02*
D03*
X6599601D02*
D03*
X6345601D02*
D03*
X5583601Y11744302D02*
D03*
X5837601D02*
D03*
X6091601D02*
D03*
X6345601D02*
D03*
X6599601D02*
D03*
X7107601D02*
D03*
X6853601D02*
D03*
X2891201Y6919800D02*
D03*
X3145201D02*
D03*
X3399201D02*
D03*
X3653201D02*
D03*
X3907201D02*
D03*
X4415201D02*
D03*
X4161201D02*
D03*
X7869601Y11744302D02*
D03*
X8123601D02*
D03*
X8377601D02*
D03*
X8631601D02*
D03*
X8885601D02*
D03*
X3807500D02*
D03*
X4061500D02*
D03*
X4315500D02*
D03*
X4569500D02*
D03*
X4823500D02*
D03*
X9893601Y6919800D02*
D03*
X9896601Y11242799D02*
D03*
X9642601Y11240300D02*
D03*
X40000000Y2500000D02*
D03*
X39800000D02*
D03*
X40200000D02*
D03*
X40400000D02*
D03*
X40600000D02*
D03*
X39600000D02*
D03*
X9642601Y10986300D02*
D03*
X9896601Y10988799D02*
D03*
Y10734799D02*
D03*
X9642601Y10732300D02*
D03*
Y10478300D02*
D03*
Y9716300D02*
D03*
Y9462300D02*
D03*
X9896601Y10480799D02*
D03*
Y9972799D02*
D03*
Y9718799D02*
D03*
Y9464799D02*
D03*
X9642601Y9970300D02*
D03*
X9896601Y10226799D02*
D03*
X9642601Y10224300D02*
D03*
Y8954300D02*
D03*
X9896601Y8956799D02*
D03*
X9642601Y8700300D02*
D03*
X9896601Y8448799D02*
D03*
Y8702799D02*
D03*
Y9210799D02*
D03*
X9642601Y8194799D02*
D03*
Y8446300D02*
D03*
Y9208300D02*
D03*
D41*
X26173001Y7143000D02*
D03*
X23873001Y2035000D02*
D03*
X21573001D02*
D03*
X873001D02*
D03*
X37670502Y6635000D02*
D03*
X29073001Y11308000D02*
D03*
X27873001D02*
D03*
X7107601Y6919800D02*
D03*
X4821601D02*
D03*
X5329601Y11744302D02*
D03*
X2637201Y6919800D02*
D03*
X7615601Y11744302D02*
D03*
X3553500D02*
D03*
X9639601Y6919800D02*
D03*
X9896601Y8194799D02*
D03*
D42*
X37670502Y1327000D02*
D03*
D43*
X1320001Y3850000D02*
D03*
X680001D02*
D03*
X1000001D02*
D03*
X24320001D02*
D03*
X23680000D02*
D03*
X24000002D02*
D03*
X38120001Y8650000D02*
D03*
X37480002D02*
D03*
X37800000D02*
D03*
X38120001Y3850000D02*
D03*
X37480002D02*
D03*
X37800000D02*
D03*
X38120001Y3350000D02*
D03*
X26300000Y8650000D02*
D03*
X25980002D02*
D03*
X26620001D02*
D03*
X21700002Y3850000D02*
D03*
X21380000D02*
D03*
X22020001D02*
D03*
X31220001Y10550000D02*
D03*
X26620001D02*
D03*
X21380000Y3350000D02*
D03*
X25980002Y8150000D02*
D03*
X37480002D02*
D03*
X23680000Y3350000D02*
D03*
X680001D02*
D03*
X31220001Y11050000D02*
D03*
X26620001D02*
D03*
X22020001Y3350000D02*
D03*
X26620001Y8150000D02*
D03*
X38120001D02*
D03*
X24320001Y3350000D02*
D03*
X1320001D02*
D03*
X30580002Y11050000D02*
D03*
X25980002D02*
D03*
X26300000Y10550000D02*
D03*
Y11050000D02*
D03*
X25980002Y10550000D02*
D03*
X30580002D02*
D03*
X30900000Y11050000D02*
D03*
Y10550000D02*
D03*
X21700002Y3350000D02*
D03*
X26300000Y8150000D02*
D03*
X37480002Y3350000D02*
D03*
X37800000D02*
D03*
Y8150000D02*
D03*
X24000002Y3350000D02*
D03*
X1000001D02*
D03*
D44*
X40350000Y1200000D02*
D03*
D45*
X35159995Y1540009D02*
D03*
X35840005Y1539979D02*
D03*
Y860001D02*
D03*
X35159995D02*
D03*
X14459998Y8740009D02*
D03*
X15140005Y8739979D02*
D03*
Y8060000D02*
D03*
X14459998D02*
D03*
X16759998Y8740009D02*
D03*
X17440005Y8739979D02*
D03*
Y8060001D02*
D03*
X16759998D02*
D03*
X19059998Y8740009D02*
D03*
X19740005Y8739979D02*
D03*
Y8060000D02*
D03*
X19059998D02*
D03*
X21359998Y8740009D02*
D03*
X22040005Y8739979D02*
D03*
Y8060001D02*
D03*
X21359998D02*
D03*
X23659998Y8740009D02*
D03*
X24340005Y8739979D02*
D03*
Y8060000D02*
D03*
X23659998D02*
D03*
X12159997Y6340009D02*
D03*
X12840005Y6339979D02*
D03*
Y5660001D02*
D03*
X12159997D02*
D03*
X14459998Y6340009D02*
D03*
X15140005Y6339979D02*
D03*
Y5660001D02*
D03*
X14459998D02*
D03*
X16759998Y6340009D02*
D03*
X17440005Y6339979D02*
D03*
Y5660001D02*
D03*
X16759998D02*
D03*
X19059998Y6340009D02*
D03*
X19740005Y6339979D02*
D03*
Y5660001D02*
D03*
X19059998D02*
D03*
X21359998Y6340009D02*
D03*
X22040005Y6339979D02*
D03*
Y5660001D02*
D03*
X21359998D02*
D03*
X23659998Y6340009D02*
D03*
X24340005Y6339979D02*
D03*
Y5660001D02*
D03*
X23659998D02*
D03*
X30559998Y8740009D02*
D03*
X31240005Y8739979D02*
D03*
Y8060001D02*
D03*
X30559998D02*
D03*
X32859998Y8740009D02*
D03*
X33540005Y8739979D02*
D03*
Y8060000D02*
D03*
X32859998D02*
D03*
X28259998Y6340009D02*
D03*
X28940005Y6339979D02*
D03*
Y5660001D02*
D03*
X28259998D02*
D03*
X30559998Y6340009D02*
D03*
X31240005Y6339979D02*
D03*
Y5660001D02*
D03*
X30559998D02*
D03*
X32859998Y6340009D02*
D03*
X33540005Y6339979D02*
D03*
Y5660001D02*
D03*
X32859998D02*
D03*
X35159995Y6340009D02*
D03*
X35840005Y6339979D02*
D03*
Y5660001D02*
D03*
X35159995D02*
D03*
X2959997Y3940009D02*
D03*
X3640006Y3939979D02*
D03*
Y3260000D02*
D03*
X2959997D02*
D03*
X5259997Y3940009D02*
D03*
X5940006Y3939979D02*
D03*
Y3260001D02*
D03*
X5259997D02*
D03*
X7559997Y3940009D02*
D03*
X8240006Y3939979D02*
D03*
Y3260000D02*
D03*
X7559997D02*
D03*
X9859997Y3940009D02*
D03*
X10540006Y3939979D02*
D03*
Y3260001D02*
D03*
X9859997D02*
D03*
X5259997Y1540009D02*
D03*
X5940006Y1539979D02*
D03*
Y860001D02*
D03*
X5259997D02*
D03*
X7559997Y1540009D02*
D03*
X8240006Y1539979D02*
D03*
Y860001D02*
D03*
X7559997D02*
D03*
X9859997Y1540009D02*
D03*
X10540006Y1539979D02*
D03*
Y860001D02*
D03*
X9859997D02*
D03*
X12159997Y3940009D02*
D03*
X12840005Y3939979D02*
D03*
Y3260000D02*
D03*
X12159997D02*
D03*
X14459998Y3940009D02*
D03*
X15140005Y3939979D02*
D03*
Y3260001D02*
D03*
X14459998D02*
D03*
X16759998Y3940009D02*
D03*
X17440005Y3939979D02*
D03*
Y3260000D02*
D03*
X16759998D02*
D03*
X19059998Y3940009D02*
D03*
X19740005Y3939979D02*
D03*
Y3260001D02*
D03*
X19059998D02*
D03*
X12159997Y1540009D02*
D03*
X12840005Y1539979D02*
D03*
Y860001D02*
D03*
X12159997D02*
D03*
X14459998Y1540009D02*
D03*
X15140005Y1539979D02*
D03*
Y860001D02*
D03*
X14459998D02*
D03*
X16759998Y1540009D02*
D03*
X17440005Y1539979D02*
D03*
Y860001D02*
D03*
X16759998D02*
D03*
X19059998Y1540009D02*
D03*
X19740005Y1539979D02*
D03*
Y860001D02*
D03*
X19059998D02*
D03*
X25959998Y3940009D02*
D03*
X26640005Y3939979D02*
D03*
Y3260000D02*
D03*
X25959998D02*
D03*
X28259998Y3940009D02*
D03*
X28940005Y3939979D02*
D03*
Y3260001D02*
D03*
X28259998D02*
D03*
X30559995Y3940009D02*
D03*
X31240005Y3939979D02*
D03*
Y3260000D02*
D03*
X30559995D02*
D03*
X32859995Y3940009D02*
D03*
X33540005Y3939979D02*
D03*
Y3260001D02*
D03*
X32859995D02*
D03*
X25959998Y1540009D02*
D03*
X26640005Y1539979D02*
D03*
Y860001D02*
D03*
X25959998D02*
D03*
X28259998Y1540009D02*
D03*
X28940005Y1539979D02*
D03*
Y860001D02*
D03*
X28259998D02*
D03*
X30559995Y1540009D02*
D03*
X31240005Y1539979D02*
D03*
Y860001D02*
D03*
X30559995D02*
D03*
X32859995Y1540009D02*
D03*
X33540005Y1539979D02*
D03*
Y860001D02*
D03*
X32859995D02*
D03*
X12159997Y11140009D02*
D03*
X12840005Y11139979D02*
D03*
Y10460001D02*
D03*
X12159997D02*
D03*
X14459998Y11140009D02*
D03*
X15140005Y11139979D02*
D03*
Y10460001D02*
D03*
X14459998D02*
D03*
X16759998Y11140009D02*
D03*
X17440005Y11139979D02*
D03*
Y10460001D02*
D03*
X16759998D02*
D03*
X19059998Y11140009D02*
D03*
X19740005Y11139979D02*
D03*
Y10460001D02*
D03*
X19059998D02*
D03*
X21359998Y11140009D02*
D03*
X22040005Y11139979D02*
D03*
Y10460001D02*
D03*
X21359998D02*
D03*
X23659998Y11140009D02*
D03*
X24340005Y11139979D02*
D03*
Y10460001D02*
D03*
X23659998D02*
D03*
X32859998Y11140009D02*
D03*
X33540005Y11139979D02*
D03*
Y10460001D02*
D03*
X32859998D02*
D03*
X35159995Y11140009D02*
D03*
X35840005Y11139979D02*
D03*
Y10460001D02*
D03*
X35159995D02*
D03*
X37459995Y11140009D02*
D03*
X38140005Y11139979D02*
D03*
Y10460001D02*
D03*
X37459995D02*
D03*
X39759995Y11140009D02*
D03*
X40440005Y11139979D02*
D03*
Y10460001D02*
D03*
X39759995D02*
D03*
X39759998Y8740009D02*
D03*
X40440005Y8739979D02*
D03*
Y8060001D02*
D03*
X39759998D02*
D03*
Y6340009D02*
D03*
X40440005Y6339979D02*
D03*
Y5660001D02*
D03*
X39759998D02*
D03*
X28259998Y8060000D02*
D03*
X28940005D02*
D03*
Y8739979D02*
D03*
X28259998Y8740009D02*
D03*
X35159995Y8060001D02*
D03*
X35840005D02*
D03*
Y8739979D02*
D03*
X35159995Y8740009D02*
D03*
Y3260001D02*
D03*
X35840005D02*
D03*
Y3939979D02*
D03*
X35159995Y3940009D02*
D03*
X12159997Y8060001D02*
D03*
X12840005D02*
D03*
Y8739979D02*
D03*
X12159997Y8740009D02*
D03*
X2959997Y860001D02*
D03*
X3640006D02*
D03*
Y1539979D02*
D03*
X2959997Y1540009D02*
D03*
D46*
X40750000Y3600000D02*
D03*
X39450000D02*
D03*
D47*
X3300001Y1200005D02*
D03*
X12500001Y8400005D02*
D03*
X35500000Y3600005D02*
D03*
Y8400005D02*
D03*
X28600000Y8400005D02*
D03*
X40100000Y6000005D02*
D03*
Y8400005D02*
D03*
X40100000Y10800005D02*
D03*
X37800000D02*
D03*
X35500000D02*
D03*
X33200000D02*
D03*
X24000002D02*
D03*
X21700002D02*
D03*
X19400002D02*
D03*
X17100002D02*
D03*
X14800002D02*
D03*
X12500001D02*
D03*
X33200000Y1200005D02*
D03*
X30900000D02*
D03*
X28600000D02*
D03*
X26300000D02*
D03*
X33200000Y3600005D02*
D03*
X30900000Y3600005D02*
D03*
X28600000Y3600005D02*
D03*
X26300000Y3600005D02*
D03*
X19400002Y1200005D02*
D03*
X17100002D02*
D03*
X14800002D02*
D03*
X12500001D02*
D03*
X19400002Y3600005D02*
D03*
X17100002Y3600005D02*
D03*
X14800002Y3600005D02*
D03*
X12500001Y3600005D02*
D03*
X10200001Y1200005D02*
D03*
X7900001D02*
D03*
X5600001D02*
D03*
X10200001Y3600005D02*
D03*
X7900001Y3600005D02*
D03*
X5600001Y3600005D02*
D03*
X3300001Y3600005D02*
D03*
X35500000Y6000005D02*
D03*
X33200000D02*
D03*
X30900000D02*
D03*
X28600000D02*
D03*
X33200000Y8400005D02*
D03*
X30900000Y8400005D02*
D03*
X24000002Y6000005D02*
D03*
X21700002D02*
D03*
X19400002D02*
D03*
X17100002D02*
D03*
X14800002D02*
D03*
X12500001D02*
D03*
X24000002Y8400005D02*
D03*
X21700002Y8400005D02*
D03*
X19400002Y8400005D02*
D03*
X17100002Y8400005D02*
D03*
X14800002Y8400005D02*
D03*
X35500000Y1200005D02*
D03*
D48*
X40100000Y950000D02*
D03*
Y1450000D02*
D03*
%TF.MD5,00f8904e1de5bde77d7027b2a835b85f*%
M02*
