%TF.GenerationSoftware,Altium Limited,Altium Designer,25.6.2 (33)*%
G04 Layer_Color=0*
%FSLAX45Y45*%
%MOMM*%
%TF.SameCoordinates,AEC4D83D-968C-4175-8A4A-4F5F7F25AAED*%
%TF.FilePolarity,Positive*%
%TF.FileFunction,NonPlated,1,4,NPTH,Drill*%
%TF.Part,Single*%
G01*
G75*
%TA.AperFunction,OtherDrill,Pad Free-0 (394mm,3mm)*%
%ADD94C,3.20000*%
%TA.AperFunction,OtherDrill,Pad Free-0 (394mm,119mm)*%
%ADD95C,3.20000*%
%TA.AperFunction,OtherDrill,Pad Free-0 (4mm,3mm)*%
%ADD96C,3.20000*%
%TA.AperFunction,OtherDrill,Pad Free-0 (210mm,119mm)*%
%ADD97C,3.20000*%
%TA.AperFunction,OtherDrill,Pad Free-0 (280mm,119mm)*%
%ADD98C,3.20000*%
%TA.AperFunction,OtherDrill,Pad Free-0 (350mm,119mm)*%
%ADD99C,3.20000*%
%TA.AperFunction,OtherDrill,Pad Free-0 (350mm,3mm)*%
%ADD100C,3.20000*%
%TA.AperFunction,OtherDrill,Pad Free-0 (280mm,3mm)*%
%ADD101C,3.20000*%
%TA.AperFunction,OtherDrill,Pad Free-0 (210mm,3mm)*%
%ADD102C,3.20000*%
%TA.AperFunction,OtherDrill,Pad Free-0 (140mm,3mm)*%
%ADD103C,3.20000*%
%TA.AperFunction,OtherDrill,Pad Free-0 (70mm,3mm)*%
%ADD104C,3.20000*%
%TA.AperFunction,OtherDrill,Pad Free-0 (140mm,119mm)*%
%ADD105C,3.20000*%
G36*
X1Y12199997D02*
X1595003Y12203043D01*
X1595001Y7290000D01*
X1595002Y7258963D01*
X1588918Y7197188D01*
X1576808Y7136306D01*
X1558789Y7076904D01*
X1535034Y7019555D01*
X1505773Y6964810D01*
X1471286Y6913198D01*
X1431907Y6865213D01*
X1388013Y6821320D01*
X1340029Y6781941D01*
X1288417Y6747454D01*
X1233672Y6718193D01*
X1176323Y6694438D01*
X1116921Y6676419D01*
X1056040Y6664310D01*
X994264Y6658226D01*
X963227Y6658226D01*
X963227D01*
X1Y6658226D01*
Y12199997D01*
D02*
G37*
D94*
X39400000Y300000D02*
D03*
D95*
Y11900000D02*
D03*
D96*
X400000Y300000D02*
D03*
D97*
X21000002Y11900000D02*
D03*
D98*
X28000000D02*
D03*
D99*
X35000000D02*
D03*
D100*
Y300000D02*
D03*
D101*
X28000000D02*
D03*
D102*
X21000002D02*
D03*
D103*
X14000002D02*
D03*
D104*
X7000001D02*
D03*
D105*
X14000002Y11900000D02*
D03*
%TF.MD5,277d116ee6c9d615ace1c9ce37dd366e*%
M02*
