%TF.GenerationSoftware,Altium Limited,Altium Designer,25.6.2 (33)*%
G04 Layer_Color=16711935*
%FSLAX45Y45*%
%MOMM*%
%TF.SameCoordinates,AEC4D83D-968C-4175-8A4A-4F5F7F25AAED*%
%TF.FilePolarity,Positive*%
%TF.FileFunction,Other,Top_3D_Body*%
%TF.Part,Single*%
G01*
G75*
%TA.AperFunction,NonConductor*%
%ADD52C,0.05000*%
D52*
X41237500Y1000000D02*
X41737500D01*
X41237500Y1399999D02*
X41737500D01*
X41237500Y1000000D02*
Y1399999D01*
X41737500Y1000000D02*
Y1399999D01*
X31762500Y1310000D02*
X31922501D01*
X31762500Y1390000D02*
X31922501D01*
X31762500Y1310000D02*
Y1390000D01*
X31922501Y1310000D02*
Y1390000D01*
X20262502Y8360000D02*
X20422501D01*
X20262502Y8440000D02*
X20422501D01*
X20262502Y8360000D02*
Y8440000D01*
X20422501Y8360000D02*
Y8440000D01*
X15659001Y8360000D02*
X15819000D01*
X15659001Y8440000D02*
X15819000D01*
X15659001Y8360000D02*
Y8440000D01*
X15819000Y8360000D02*
Y8440000D01*
X13362502Y8360000D02*
X13522501D01*
X13362502Y8440000D02*
X13522501D01*
X13362502Y8360000D02*
Y8440000D01*
X13522501Y8360000D02*
Y8440000D01*
X17962502Y8360000D02*
X18122501D01*
X17962502Y8440000D02*
X18122501D01*
X17962502Y8360000D02*
Y8440000D01*
X18122501Y8360000D02*
Y8440000D01*
X13522502Y5960220D02*
Y6040220D01*
X13362502Y5960220D02*
Y6040220D01*
X13522502D01*
X13362502Y5960220D02*
X13522502D01*
X15822502D02*
Y6040220D01*
X15662502Y5960220D02*
Y6040220D01*
X15822502D01*
X15662502Y5960220D02*
X15822502D01*
X25022501Y8360000D02*
Y8440000D01*
X24862502Y8360000D02*
Y8440000D01*
X25022501D01*
X24862502Y8360000D02*
X25022501D01*
X22722501D02*
Y8440000D01*
X22562502Y8360000D02*
Y8440000D01*
X22722501D01*
X22562502Y8360000D02*
X22722501D01*
X41347501Y5647500D02*
X41507501D01*
X41347501Y5727500D02*
X41507501D01*
X41347501Y5647500D02*
Y5727500D01*
X41507501Y5647500D02*
Y5727500D01*
X41347501Y8047500D02*
X41507501D01*
X41347501Y8127500D02*
X41507501D01*
X41347501Y8047500D02*
Y8127500D01*
X41507501Y8047500D02*
Y8127500D01*
X41347501Y10447500D02*
X41507501D01*
X41347501Y10527500D02*
X41507501D01*
X41347501Y10447500D02*
Y10527500D01*
X41507501Y10447500D02*
Y10527500D01*
X39047501Y10447500D02*
X39207501D01*
X39047501Y10527500D02*
X39207501D01*
X39047501Y10447500D02*
Y10527500D01*
X39207501Y10447500D02*
Y10527500D01*
X36747501Y10447500D02*
X36907501D01*
X36747501Y10527500D02*
X36907501D01*
X36747501Y10447500D02*
Y10527500D01*
X36907501Y10447500D02*
Y10527500D01*
X34447501Y10447500D02*
X34607501D01*
X34447501Y10527500D02*
X34607501D01*
X34447501Y10447500D02*
Y10527500D01*
X34607501Y10447500D02*
Y10527500D01*
X25239999Y10447500D02*
X25400000D01*
X25239999Y10527500D02*
X25400000D01*
X25239999Y10447500D02*
Y10527500D01*
X25400000Y10447500D02*
Y10527500D01*
X22947501Y10447500D02*
X23107501D01*
X22947501Y10527500D02*
X23107501D01*
X22947501Y10447500D02*
Y10527500D01*
X23107501Y10447500D02*
Y10527500D01*
X20647501Y10447500D02*
X20807501D01*
X20647501Y10527500D02*
X20807501D01*
X20647501Y10447500D02*
Y10527500D01*
X20807501Y10447500D02*
Y10527500D01*
X18347501Y10447500D02*
X18507501D01*
X18347501Y10527500D02*
X18507501D01*
X18347501Y10447500D02*
Y10527500D01*
X18507501Y10447500D02*
Y10527500D01*
X16047501Y10447500D02*
X16207501D01*
X16047501Y10527500D02*
X16207501D01*
X16047501Y10447500D02*
Y10527500D01*
X16207501Y10447500D02*
Y10527500D01*
X13747501Y10450000D02*
X13907501D01*
X13747501Y10530000D02*
X13907501D01*
X13747501Y10450000D02*
Y10530000D01*
X13907501Y10450000D02*
Y10530000D01*
X33870001Y960000D02*
X34029999D01*
X33870001Y1040000D02*
X34029999D01*
X33870001Y960000D02*
Y1040000D01*
X34029999Y960000D02*
Y1040000D01*
X31762500Y1160000D02*
X31922501D01*
X31762500Y1240000D02*
X31922501D01*
X31762500Y1160000D02*
Y1240000D01*
X31922501Y1160000D02*
Y1240000D01*
X29462500Y1160000D02*
X29622501D01*
X29462500Y1240000D02*
X29622501D01*
X29462500Y1160000D02*
Y1240000D01*
X29622501Y1160000D02*
Y1240000D01*
X27162500Y1160000D02*
X27322501D01*
X27162500Y1240000D02*
X27322501D01*
X27162500Y1160000D02*
Y1240000D01*
X27322501Y1160000D02*
Y1240000D01*
X33870001Y3360000D02*
X34030002D01*
X33870001Y3440000D02*
X34030002D01*
X33870001Y3360000D02*
Y3440000D01*
X34030002Y3360000D02*
Y3440000D01*
X31762500Y3560000D02*
X31922501D01*
X31762500Y3640000D02*
X31922501D01*
X31762500Y3560000D02*
Y3640000D01*
X31922501Y3560000D02*
Y3640000D01*
X29462500Y3560000D02*
X29622501D01*
X29462500Y3640000D02*
X29622501D01*
X29462500Y3560000D02*
Y3640000D01*
X29622501Y3560000D02*
Y3640000D01*
X27162500Y3560000D02*
X27322501D01*
X27162500Y3640000D02*
X27322501D01*
X27162500Y3560000D02*
Y3640000D01*
X27322501Y3560000D02*
Y3640000D01*
X20262502Y1160000D02*
X20422501D01*
X20262502Y1240000D02*
X20422501D01*
X20262502Y1160000D02*
Y1240000D01*
X20422501Y1160000D02*
Y1240000D01*
X17962502Y1160000D02*
X18122501D01*
X17962502Y1240000D02*
X18122501D01*
X17962502Y1160000D02*
Y1240000D01*
X18122501Y1160000D02*
Y1240000D01*
X15662502Y1160000D02*
X15822501D01*
X15662502Y1240000D02*
X15822501D01*
X15662502Y1160000D02*
Y1240000D01*
X15822501Y1160000D02*
Y1240000D01*
X13362502Y1160000D02*
X13522501D01*
X13362502Y1240000D02*
X13522501D01*
X13362502Y1160000D02*
Y1240000D01*
X13522501Y1160000D02*
Y1240000D01*
X20277499Y3710000D02*
X20437500D01*
X20277499Y3790000D02*
X20437500D01*
X20277499Y3710000D02*
Y3790000D01*
X20437500Y3710000D02*
Y3790000D01*
X17962502Y3560000D02*
X18122501D01*
X17962502Y3640000D02*
X18122501D01*
X17962502Y3560000D02*
Y3640000D01*
X18122501Y3560000D02*
Y3640000D01*
X15662502Y3560000D02*
X15822501D01*
X15662502Y3640000D02*
X15822501D01*
X15662502Y3560000D02*
Y3640000D01*
X15822501Y3560000D02*
Y3640000D01*
X13362502Y3560000D02*
X13522501D01*
X13362502Y3640000D02*
X13522501D01*
X13362502Y3560000D02*
Y3640000D01*
X13522501Y3560000D02*
Y3640000D01*
X10870002Y960000D02*
X11030002D01*
X10870002Y1040000D02*
X11030002D01*
X10870002Y960000D02*
Y1040000D01*
X11030002Y960000D02*
Y1040000D01*
X8762500Y1160000D02*
X8922500D01*
X8762500Y1240000D02*
X8922500D01*
X8762500Y1160000D02*
Y1240000D01*
X8922500Y1160000D02*
Y1240000D01*
X6462501Y1160000D02*
X6622501D01*
X6462501Y1240000D02*
X6622501D01*
X6462501Y1160000D02*
Y1240000D01*
X6622501Y1160000D02*
Y1240000D01*
X4162500Y1160000D02*
X4322500D01*
X4162500Y1240000D02*
X4322500D01*
X4162500Y1160000D02*
Y1240000D01*
X4322500Y1160000D02*
Y1240000D01*
X10870002Y3360000D02*
X11030002D01*
X10870002Y3440000D02*
X11030002D01*
X10870002Y3360000D02*
Y3440000D01*
X11030002Y3360000D02*
Y3440000D01*
X8762501Y3560000D02*
X8922501D01*
X8762501Y3640000D02*
X8922501D01*
X8762501Y3560000D02*
Y3640000D01*
X8922501Y3560000D02*
Y3640000D01*
X6462501Y3560000D02*
X6622501D01*
X6462501Y3640000D02*
X6622501D01*
X6462501Y3560000D02*
Y3640000D01*
X6622501Y3560000D02*
Y3640000D01*
X4162501Y3560000D02*
X4322501D01*
X4162501Y3640000D02*
X4322501D01*
X4162501Y3560000D02*
Y3640000D01*
X4322501Y3560000D02*
Y3640000D01*
X35972501Y7172500D02*
X36132501D01*
X35972501Y7252500D02*
X36132501D01*
X35972501Y7172500D02*
Y7252500D01*
X36132501Y7172500D02*
Y7252500D01*
X34062500Y5960221D02*
X34222501D01*
X34062500Y6040221D02*
X34222501D01*
X34062500Y5960221D02*
Y6040221D01*
X34222501Y5960221D02*
Y6040221D01*
X31762500Y5960221D02*
X31922501D01*
X31762500Y6040221D02*
X31922501D01*
X31762500Y5960221D02*
Y6040221D01*
X31922501Y5960221D02*
Y6040221D01*
X29462500Y5960221D02*
X29622501D01*
X29462500Y6040221D02*
X29622501D01*
X29462500Y5960221D02*
Y6040221D01*
X29622501Y5960221D02*
Y6040221D01*
X36170001Y8160000D02*
X36329999D01*
X36170001Y8240000D02*
X36329999D01*
X36170001Y8160000D02*
Y8240000D01*
X36329999Y8160000D02*
Y8240000D01*
X34062500Y8360221D02*
X34222501D01*
X34062500Y8440220D02*
X34222501D01*
X34062500Y8360221D02*
Y8440220D01*
X34222501Y8360221D02*
Y8440220D01*
X31762500Y8360221D02*
X31922501D01*
X31762500Y8440220D02*
X31922501D01*
X31762500Y8360221D02*
Y8440220D01*
X31922501Y8360221D02*
Y8440220D01*
X29462500Y8360221D02*
X29622501D01*
X29462500Y8440220D02*
X29622501D01*
X29462500Y8360221D02*
Y8440220D01*
X29622501Y8360221D02*
Y8440220D01*
X24735001Y5860000D02*
X24895000D01*
X24735001Y5940000D02*
X24895000D01*
X24735001Y5860000D02*
Y5940000D01*
X24895000Y5860000D02*
Y5940000D01*
X22562502Y5960220D02*
X22722501D01*
X22562502Y6040220D02*
X22722501D01*
X22562502Y5960220D02*
Y6040220D01*
X22722501Y5960220D02*
Y6040220D01*
X20262502Y5960220D02*
X20422501D01*
X20262502Y6040220D02*
X20422501D01*
X20262502Y5960220D02*
Y6040220D01*
X20422501Y5960220D02*
Y6040220D01*
X17962502Y5960220D02*
X18122501D01*
X17962502Y6040220D02*
X18122501D01*
X17962502Y5960220D02*
Y6040220D01*
X18122501Y5960220D02*
Y6040220D01*
X41470001Y715000D02*
Y795000D01*
X41310001Y715000D02*
Y795000D01*
X41470001D01*
X41310001Y715000D02*
X41470001D01*
X41575000Y600000D02*
X41655002D01*
X41575000Y760000D02*
X41655002D01*
Y600000D02*
Y760000D01*
X41575000Y600000D02*
Y760000D01*
X40080002Y512500D02*
X40400000D01*
X40080002Y352500D02*
X40400000D01*
X40080002D02*
Y512500D01*
X40400000Y352500D02*
Y512500D01*
X41457501Y2432500D02*
Y2512500D01*
X41297501Y2432500D02*
Y2512500D01*
X41457501D01*
X41297501Y2432500D02*
X41457501D01*
X41757501D02*
Y2512500D01*
X41597501Y2432500D02*
Y2512500D01*
X41757501D01*
X41597501Y2432500D02*
X41757501D01*
X40080002Y1807500D02*
X40400000D01*
X40080002Y1647500D02*
X40400000D01*
X40080002D02*
Y1807500D01*
X40400000Y1647500D02*
Y1807500D01*
X41647501Y1817500D02*
X41727502D01*
X41647501Y1657500D02*
X41727502D01*
X41647501D02*
Y1817500D01*
X41727502Y1657500D02*
Y1817500D01*
X41542502Y1622500D02*
Y1702500D01*
X41382501Y1622500D02*
Y1702500D01*
X41542502D01*
X41382501Y1622500D02*
X41542502D01*
X38575000Y1010000D02*
X38655002D01*
X38575000Y1170000D02*
X38655002D01*
Y1010000D02*
Y1170000D01*
X38575000Y1010000D02*
Y1170000D01*
X38460001Y825000D02*
Y905000D01*
X38620001Y825000D02*
Y905000D01*
X38460001Y825000D02*
X38620001D01*
X38460001Y905000D02*
X38620001D01*
X41595001Y3950000D02*
X41675000D01*
X41595001Y3790000D02*
X41675000D01*
X41595001D02*
Y3950000D01*
X41675000Y3790000D02*
Y3950000D01*
X41189999Y3905000D02*
Y3985000D01*
X41029999Y3905000D02*
Y3985000D01*
X41189999D01*
X41029999Y3905000D02*
X41189999D01*
X41489999D02*
Y3985000D01*
X41329999Y3905000D02*
Y3985000D01*
X41489999D01*
X41329999Y3905000D02*
X41489999D01*
X40995001Y3610000D02*
X41075000D01*
X40995001Y3770000D02*
X41075000D01*
Y3610000D02*
Y3770000D01*
X40995001Y3610000D02*
Y3770000D01*
X41329999Y3125000D02*
Y3205000D01*
X41489999Y3125000D02*
Y3205000D01*
X41329999Y3125000D02*
X41489999D01*
X41329999Y3205000D02*
X41489999D01*
X41029999Y3125000D02*
Y3205000D01*
X41189999Y3125000D02*
Y3205000D01*
X41029999Y3125000D02*
X41189999D01*
X41029999Y3205000D02*
X41189999D01*
X41189999Y2975000D02*
Y3055000D01*
X41029999Y2975000D02*
Y3055000D01*
X41189999D01*
X41029999Y2975000D02*
X41189999D01*
X40995001Y3470000D02*
X41075000D01*
X40995001Y3310000D02*
X41075000D01*
X40995001D02*
Y3470000D01*
X41075000Y3310000D02*
Y3470000D01*
X41745001Y3790000D02*
X41825000D01*
X41745001Y3950000D02*
X41825000D01*
Y3790000D02*
Y3950000D01*
X41745001Y3790000D02*
Y3950000D01*
X41489999Y2975000D02*
Y3055000D01*
X41329999Y2975000D02*
Y3055000D01*
X41489999D01*
X41329999Y2975000D02*
X41489999D01*
X34207501Y1460000D02*
Y1540000D01*
X34047501Y1460000D02*
Y1540000D01*
X34207501D01*
X34047501Y1460000D02*
X34207501D01*
X13522501Y8510000D02*
Y8590000D01*
X13362502Y8510000D02*
Y8590000D01*
X13522501D01*
X13362502Y8510000D02*
X13522501D01*
X15822501Y8510000D02*
Y8590000D01*
X15662502Y8510000D02*
Y8590000D01*
X15822501D01*
X15662502Y8510000D02*
X15822501D01*
X18122501Y8510000D02*
Y8590000D01*
X17962502Y8510000D02*
Y8590000D01*
X18122501D01*
X17962502Y8510000D02*
X18122501D01*
X20422501Y8510000D02*
Y8590000D01*
X20262502Y8510000D02*
Y8590000D01*
X20422501D01*
X20262502Y8510000D02*
X20422501D01*
X22722501Y8510000D02*
Y8590000D01*
X22562502Y8510000D02*
Y8590000D01*
X22722501D01*
X22562502Y8510000D02*
X22722501D01*
X25022501Y8510000D02*
Y8590000D01*
X24862502Y8510000D02*
Y8590000D01*
X25022501D01*
X24862502Y8510000D02*
X25022501D01*
X13522501Y6110000D02*
Y6190000D01*
X13362502Y6110000D02*
Y6190000D01*
X13522501D01*
X13362502Y6110000D02*
X13522501D01*
X15822501D02*
Y6190000D01*
X15662502Y6110000D02*
Y6190000D01*
X15822501D01*
X15662502Y6110000D02*
X15822501D01*
X18122501D02*
Y6190000D01*
X17962502Y6110000D02*
Y6190000D01*
X18122501D01*
X17962502Y6110000D02*
X18122501D01*
X20422501D02*
Y6190000D01*
X20262502Y6110000D02*
Y6190000D01*
X20422501D01*
X20262502Y6110000D02*
X20422501D01*
X22722501D02*
Y6190000D01*
X22562502Y6110000D02*
Y6190000D01*
X22722501D01*
X22562502Y6110000D02*
X22722501D01*
X24895000Y6010000D02*
Y6090000D01*
X24735001Y6010000D02*
Y6090000D01*
X24895000D01*
X24735001Y6010000D02*
X24895000D01*
X29622501Y8510000D02*
Y8590000D01*
X29462500Y8510000D02*
Y8590000D01*
X29622501D01*
X29462500Y8510000D02*
X29622501D01*
X31922501Y8510000D02*
Y8590000D01*
X31762500Y8510000D02*
Y8590000D01*
X31922501D01*
X31762500Y8510000D02*
X31922501D01*
X34222501Y8510000D02*
Y8590000D01*
X34062500Y8510000D02*
Y8590000D01*
X34222501D01*
X34062500Y8510000D02*
X34222501D01*
X36135001Y8545000D02*
X36215002D01*
X36135001Y8385000D02*
X36215002D01*
X36135001D02*
Y8545000D01*
X36215002Y8385000D02*
Y8545000D01*
X29622501Y6110000D02*
Y6190000D01*
X29462500Y6110000D02*
Y6190000D01*
X29622501D01*
X29462500Y6110000D02*
X29622501D01*
X31922501D02*
Y6190000D01*
X31762500Y6110000D02*
Y6190000D01*
X31922501D01*
X31762500Y6110000D02*
X31922501D01*
X34222501D02*
Y6190000D01*
X34062500Y6110000D02*
Y6190000D01*
X34222501D01*
X34062500Y6110000D02*
X34222501D01*
X36132501Y7022500D02*
Y7102500D01*
X35972501Y7022500D02*
Y7102500D01*
X36132501D01*
X35972501Y7022500D02*
X36132501D01*
X4322501Y3710000D02*
Y3790000D01*
X4162501Y3710000D02*
Y3790000D01*
X4322501D01*
X4162501Y3710000D02*
X4322501D01*
X6622501Y3710000D02*
Y3790000D01*
X6462501Y3710000D02*
Y3790000D01*
X6622501D01*
X6462501Y3710000D02*
X6622501D01*
X8922501Y3710000D02*
Y3790000D01*
X8762501Y3710000D02*
Y3790000D01*
X8922501D01*
X8762501Y3710000D02*
X8922501D01*
X10835001Y3745000D02*
X10915001D01*
X10835001Y3585000D02*
X10915001D01*
X10835001D02*
Y3745000D01*
X10915001Y3585000D02*
Y3745000D01*
X4322501Y1310000D02*
Y1390000D01*
X4162501Y1310000D02*
Y1390000D01*
X4322501D01*
X4162501Y1310000D02*
X4322501D01*
X6622501D02*
Y1390000D01*
X6462501Y1310000D02*
Y1390000D01*
X6622501D01*
X6462501Y1310000D02*
X6622501D01*
X8922501D02*
Y1390000D01*
X8762501Y1310000D02*
Y1390000D01*
X8922501D01*
X8762501Y1310000D02*
X8922501D01*
X10835001Y1345000D02*
X10915001D01*
X10835001Y1185000D02*
X10915001D01*
X10835001D02*
Y1345000D01*
X10915001Y1185000D02*
Y1345000D01*
X13522501Y3710000D02*
Y3790000D01*
X13362502Y3710000D02*
Y3790000D01*
X13522501D01*
X13362502Y3710000D02*
X13522501D01*
X15822501Y3710000D02*
Y3790000D01*
X15662502Y3710000D02*
Y3790000D01*
X15822501D01*
X15662502Y3710000D02*
X15822501D01*
X18122501Y3710000D02*
Y3790000D01*
X17962502Y3710000D02*
Y3790000D01*
X18122501D01*
X17962502Y3710000D02*
X18122501D01*
X20437500Y3860000D02*
Y3940000D01*
X20277499Y3860000D02*
Y3940000D01*
X20437500D01*
X20277499Y3860000D02*
X20437500D01*
X13522501Y1310000D02*
Y1390000D01*
X13362502Y1310000D02*
Y1390000D01*
X13522501D01*
X13362502Y1310000D02*
X13522501D01*
X15822501D02*
Y1390000D01*
X15662502Y1310000D02*
Y1390000D01*
X15822501D01*
X15662502Y1310000D02*
X15822501D01*
X18122501D02*
Y1390000D01*
X17962502Y1310000D02*
Y1390000D01*
X18122501D01*
X17962502Y1310000D02*
X18122501D01*
X20422501D02*
Y1390000D01*
X20262502Y1310000D02*
Y1390000D01*
X20422501D01*
X20262502Y1310000D02*
X20422501D01*
X27322501Y3710000D02*
Y3790000D01*
X27162500Y3710000D02*
Y3790000D01*
X27322501D01*
X27162500Y3710000D02*
X27322501D01*
X29622501Y3710000D02*
Y3790000D01*
X29462500Y3710000D02*
Y3790000D01*
X29622501D01*
X29462500Y3710000D02*
X29622501D01*
X37050000Y10335000D02*
X37130002D01*
X37050000Y10495000D02*
X37130002D01*
Y10335000D02*
Y10495000D01*
X37050000Y10335000D02*
Y10495000D01*
X39350000Y10335000D02*
X39430002D01*
X39350000Y10495000D02*
X39430002D01*
Y10335000D02*
Y10495000D01*
X39350000Y10335000D02*
Y10495000D01*
X41650000Y10335000D02*
X41730002D01*
X41650000Y10495000D02*
X41730002D01*
Y10335000D02*
Y10495000D01*
X41650000Y10335000D02*
Y10495000D01*
X41650003Y7935000D02*
X41730002D01*
X41650003Y8095000D02*
X41730002D01*
Y7935000D02*
Y8095000D01*
X41650003Y7935000D02*
Y8095000D01*
Y5535000D02*
X41730002D01*
X41650003Y5695000D02*
X41730002D01*
Y5535000D02*
Y5695000D01*
X41650003Y5535000D02*
Y5695000D01*
X13180000Y10915000D02*
X13260001D01*
X13180000Y11075000D02*
X13260001D01*
Y10915000D02*
Y11075000D01*
X13180000Y10915000D02*
Y11075000D01*
X15480000Y10912500D02*
X15560001D01*
X15480000Y11072500D02*
X15560001D01*
Y10912500D02*
Y11072500D01*
X15480000Y10912500D02*
Y11072500D01*
X17780000Y10912500D02*
X17860001D01*
X17780000Y11072500D02*
X17860001D01*
Y10912500D02*
Y11072500D01*
X17780000Y10912500D02*
Y11072500D01*
X20080000Y10912500D02*
X20160001D01*
X20080000Y11072500D02*
X20160001D01*
Y10912500D02*
Y11072500D01*
X20080000Y10912500D02*
Y11072500D01*
X22380000Y10912500D02*
X22460001D01*
X22380000Y11072500D02*
X22460001D01*
Y10912500D02*
Y11072500D01*
X22380000Y10912500D02*
Y11072500D01*
X24680000Y10912500D02*
X24760001D01*
X24680000Y11072500D02*
X24760001D01*
Y10912500D02*
Y11072500D01*
X24680000Y10912500D02*
Y11072500D01*
X33880002Y10912500D02*
X33960001D01*
X33880002Y11072500D02*
X33960001D01*
Y10912500D02*
Y11072500D01*
X33880002Y10912500D02*
Y11072500D01*
X36180002Y10912500D02*
X36260001D01*
X36180002Y11072500D02*
X36260001D01*
Y10912500D02*
Y11072500D01*
X36180002Y10912500D02*
Y11072500D01*
X38480002Y10912500D02*
X38560001D01*
X38480002Y11072500D02*
X38560001D01*
Y10912500D02*
Y11072500D01*
X38480002Y10912500D02*
Y11072500D01*
X40780002Y10912500D02*
X40860001D01*
X40780002Y11072500D02*
X40860001D01*
Y10912500D02*
Y11072500D01*
X40780002Y10912500D02*
Y11072500D01*
X40780002Y8512500D02*
X40860001D01*
X40780002Y8672500D02*
X40860001D01*
Y8512500D02*
Y8672500D01*
X40780002Y8512500D02*
Y8672500D01*
Y6112500D02*
X40860001D01*
X40780002Y6272500D02*
X40860001D01*
Y6112500D02*
Y6272500D01*
X40780002Y6112500D02*
Y6272500D01*
X13180000Y10475000D02*
X13260001D01*
X13180000Y10315000D02*
X13260001D01*
X13180000D02*
Y10475000D01*
X13260001Y10315000D02*
Y10475000D01*
X15480000Y10472500D02*
X15560001D01*
X15480000Y10312500D02*
X15560001D01*
X15480000D02*
Y10472500D01*
X15560001Y10312500D02*
Y10472500D01*
X17780000D02*
X17860001D01*
X17780000Y10312500D02*
X17860001D01*
X17780000D02*
Y10472500D01*
X17860001Y10312500D02*
Y10472500D01*
X20160001Y10312500D02*
Y10472500D01*
X20080000Y10312500D02*
Y10472500D01*
Y10312500D02*
X20160001D01*
X20080000Y10472500D02*
X20160001D01*
X22380000D02*
X22460001D01*
X22380000Y10312500D02*
X22460001D01*
X22380000D02*
Y10472500D01*
X22460001Y10312500D02*
Y10472500D01*
X24680000D02*
X24760001D01*
X24680000Y10312500D02*
X24760001D01*
X24680000D02*
Y10472500D01*
X24760001Y10312500D02*
Y10472500D01*
X33880002D02*
X33960001D01*
X33880002Y10312500D02*
X33960001D01*
X33880002D02*
Y10472500D01*
X33960001Y10312500D02*
Y10472500D01*
X36180002D02*
X36260001D01*
X36180002Y10312500D02*
X36260001D01*
X36180002D02*
Y10472500D01*
X36260001Y10312500D02*
Y10472500D01*
X38480002D02*
X38560001D01*
X38480002Y10312500D02*
X38560001D01*
X38480002D02*
Y10472500D01*
X38560001Y10312500D02*
Y10472500D01*
X40780002D02*
X40860001D01*
X40780002Y10312500D02*
X40860001D01*
X40780002D02*
Y10472500D01*
X40860001Y10312500D02*
Y10472500D01*
X40780002Y8072500D02*
X40860001D01*
X40780002Y7912500D02*
X40860001D01*
X40780002D02*
Y8072500D01*
X40860001Y7912500D02*
Y8072500D01*
X40780002Y5672500D02*
X40860001D01*
X40780002Y5512500D02*
X40860001D01*
X40780002D02*
Y5672500D01*
X40860001Y5512500D02*
Y5672500D01*
X14050002Y11080000D02*
X14130000D01*
X14050002Y11240000D02*
X14130000D01*
Y11080000D02*
Y11240000D01*
X14050002Y11080000D02*
Y11240000D01*
X16350002Y11077500D02*
X16430000D01*
X16350002Y11237500D02*
X16430000D01*
Y11077500D02*
Y11237500D01*
X16350002Y11077500D02*
Y11237500D01*
X18650002Y11077500D02*
X18730000D01*
X18650002Y11237500D02*
X18730000D01*
Y11077500D02*
Y11237500D01*
X18650002Y11077500D02*
Y11237500D01*
X20950002Y11077500D02*
Y11237500D01*
X21030000Y11077500D02*
Y11237500D01*
X20950002D02*
X21030000D01*
X20950002Y11077500D02*
X21030000D01*
X23250002D02*
X23330000D01*
X23250002Y11237500D02*
X23330000D01*
Y11077500D02*
Y11237500D01*
X23250002Y11077500D02*
Y11237500D01*
X25270001Y11387500D02*
Y11467500D01*
X25430000Y11387500D02*
Y11467500D01*
X25270001Y11387500D02*
X25430000D01*
X25270001Y11467500D02*
X25430000D01*
X34750000Y11077500D02*
X34830002D01*
X34750000Y11237500D02*
X34830002D01*
Y11077500D02*
Y11237500D01*
X34750000Y11077500D02*
Y11237500D01*
X37050000Y11077500D02*
X37130002D01*
X37050000Y11237500D02*
X37130002D01*
Y11077500D02*
Y11237500D01*
X37050000Y11077500D02*
Y11237500D01*
X39350000Y11077500D02*
X39430002D01*
X39350000Y11237500D02*
X39430002D01*
Y11077500D02*
Y11237500D01*
X39350000Y11077500D02*
Y11237500D01*
X41650000Y11077500D02*
X41730002D01*
X41650000Y11237500D02*
X41730002D01*
Y11077500D02*
Y11237500D01*
X41650000Y11077500D02*
Y11237500D01*
X41650003Y8677500D02*
X41730002D01*
X41650003Y8837500D02*
X41730002D01*
Y8677500D02*
Y8837500D01*
X41650003Y8677500D02*
Y8837500D01*
Y6277500D02*
X41730002D01*
X41650003Y6437500D02*
X41730002D01*
Y6277500D02*
Y6437500D01*
X41650003Y6277500D02*
Y6437500D01*
X13525002Y11060000D02*
Y11140000D01*
X13365001Y11060000D02*
Y11140000D01*
X13525002D01*
X13365001Y11060000D02*
X13525002D01*
X15825002Y11057500D02*
Y11137500D01*
X15665001Y11057500D02*
Y11137500D01*
X15825002D01*
X15665001Y11057500D02*
X15825002D01*
X18125002D02*
Y11137500D01*
X17965001Y11057500D02*
Y11137500D01*
X18125002D01*
X17965001Y11057500D02*
X18125002D01*
X20265001D02*
X20425002D01*
X20265001Y11137500D02*
X20425002D01*
X20265001Y11057500D02*
Y11137500D01*
X20425002Y11057500D02*
Y11137500D01*
X22725002Y11057500D02*
Y11137500D01*
X22565001Y11057500D02*
Y11137500D01*
X22725002D01*
X22565001Y11057500D02*
X22725002D01*
X25025002D02*
Y11137500D01*
X24865001Y11057500D02*
Y11137500D01*
X25025002D01*
X24865001Y11057500D02*
X25025002D01*
X34225000D02*
Y11137500D01*
X34065002Y11057500D02*
Y11137500D01*
X34225000D01*
X34065002Y11057500D02*
X34225000D01*
X36525000D02*
Y11137500D01*
X36365002Y11057500D02*
Y11137500D01*
X36525000D01*
X36365002Y11057500D02*
X36525000D01*
X38825000D02*
Y11137500D01*
X38665002Y11057500D02*
Y11137500D01*
X38825000D01*
X38665002Y11057500D02*
X38825000D01*
X41125000D02*
Y11137500D01*
X40965002Y11057500D02*
Y11137500D01*
X41125000D01*
X40965002Y11057500D02*
X41125000D01*
X41125003Y8657500D02*
Y8737500D01*
X40965002Y8657500D02*
Y8737500D01*
X41125003D01*
X40965002Y8657500D02*
X41125003D01*
Y6257500D02*
Y6337500D01*
X40965002Y6257500D02*
Y6337500D01*
X41125003D01*
X40965002Y6257500D02*
X41125003D01*
X14050002Y10337500D02*
X14130000D01*
X14050002Y10497500D02*
X14130000D01*
Y10337500D02*
Y10497500D01*
X14050002Y10337500D02*
Y10497500D01*
X16350002Y10335000D02*
X16430000D01*
X16350002Y10495000D02*
X16430000D01*
Y10335000D02*
Y10495000D01*
X16350002Y10335000D02*
Y10495000D01*
X18650002Y10335000D02*
X18730000D01*
X18650002Y10495000D02*
X18730000D01*
Y10335000D02*
Y10495000D01*
X18650002Y10335000D02*
Y10495000D01*
X20950002Y10335000D02*
X21030000D01*
X20950002Y10495000D02*
X21030000D01*
Y10335000D02*
Y10495000D01*
X20950002Y10335000D02*
Y10495000D01*
X23250002Y10335000D02*
X23330000D01*
X23250002Y10495000D02*
X23330000D01*
Y10335000D02*
Y10495000D01*
X23250002Y10335000D02*
Y10495000D01*
X25340002Y10140000D02*
X25420001D01*
X25340002Y10300000D02*
X25420001D01*
Y10140000D02*
Y10300000D01*
X25340002Y10140000D02*
Y10300000D01*
X34750000Y10335000D02*
X34830002D01*
X34750000Y10495000D02*
X34830002D01*
Y10335000D02*
Y10495000D01*
X34750000Y10335000D02*
Y10495000D01*
X13522501Y8660000D02*
Y8740000D01*
X13362502Y8660000D02*
Y8740000D01*
X13522501D01*
X13362502Y8660000D02*
X13522501D01*
X15822501Y8660000D02*
Y8740000D01*
X15662502Y8660000D02*
Y8740000D01*
X15822501D01*
X15662502Y8660000D02*
X15822501D01*
X18122501Y8660000D02*
Y8740000D01*
X17962502Y8660000D02*
Y8740000D01*
X18122501D01*
X17962502Y8660000D02*
X18122501D01*
X20422501Y8660000D02*
Y8740000D01*
X20262502Y8660000D02*
Y8740000D01*
X20422501D01*
X20262502Y8660000D02*
X20422501D01*
X22722501Y8660000D02*
Y8740000D01*
X22562502Y8660000D02*
Y8740000D01*
X22722501D01*
X22562502Y8660000D02*
X22722501D01*
X25022501Y8660000D02*
Y8740000D01*
X24862502Y8660000D02*
Y8740000D01*
X25022501D01*
X24862502Y8660000D02*
X25022501D01*
X13522501Y6260000D02*
Y6340000D01*
X13362502Y6260000D02*
Y6340000D01*
X13522501D01*
X13362502Y6260000D02*
X13522501D01*
X15822501D02*
Y6340000D01*
X15662502Y6260000D02*
Y6340000D01*
X15822501D01*
X15662502Y6260000D02*
X15822501D01*
X18122501D02*
Y6340000D01*
X17962502Y6260000D02*
Y6340000D01*
X18122501D01*
X17962502Y6260000D02*
X18122501D01*
X20422501D02*
Y6340000D01*
X20262502Y6260000D02*
Y6340000D01*
X20422501D01*
X20262502Y6260000D02*
X20422501D01*
X22722501D02*
Y6340000D01*
X22562502Y6260000D02*
Y6340000D01*
X22722501D01*
X22562502Y6260000D02*
X22722501D01*
X24895000Y6160000D02*
Y6240000D01*
X24735001Y6160000D02*
Y6240000D01*
X24895000D01*
X24735001Y6160000D02*
X24895000D01*
X29622501Y8660000D02*
Y8740000D01*
X29462500Y8660000D02*
Y8740000D01*
X29622501D01*
X29462500Y8660000D02*
X29622501D01*
X31922501Y8660000D02*
Y8740000D01*
X31762500Y8660000D02*
Y8740000D01*
X31922501D01*
X31762500Y8660000D02*
X31922501D01*
X34222501Y8660000D02*
Y8740000D01*
X34062500Y8660000D02*
Y8740000D01*
X34222501D01*
X34062500Y8660000D02*
X34222501D01*
X36507501Y8660000D02*
Y8740000D01*
X36347501Y8660000D02*
Y8740000D01*
X36507501D01*
X36347501Y8660000D02*
X36507501D01*
X29622501Y6260000D02*
Y6340000D01*
X29462500Y6260000D02*
Y6340000D01*
X29622501D01*
X29462500Y6260000D02*
X29622501D01*
X31922501D02*
Y6340000D01*
X31762500Y6260000D02*
Y6340000D01*
X31922501D01*
X31762500Y6260000D02*
X31922501D01*
X34222501D02*
Y6340000D01*
X34062500Y6260000D02*
Y6340000D01*
X34222501D01*
X34062500Y6260000D02*
X34222501D01*
X36302499Y6877500D02*
X36382501D01*
X36302499Y6717500D02*
X36382501D01*
X36302499D02*
Y6877500D01*
X36382501Y6717500D02*
Y6877500D01*
X4322501Y3860000D02*
Y3940000D01*
X4162501Y3860000D02*
Y3940000D01*
X4322501D01*
X4162501Y3860000D02*
X4322501D01*
X6622501Y3860000D02*
Y3940000D01*
X6462501Y3860000D02*
Y3940000D01*
X6622501D01*
X6462501Y3860000D02*
X6622501D01*
X8922501Y3860000D02*
Y3940000D01*
X8762501Y3860000D02*
Y3940000D01*
X8922501D01*
X8762501Y3860000D02*
X8922501D01*
X11207501Y3860000D02*
Y3940000D01*
X11047501Y3860000D02*
Y3940000D01*
X11207501D01*
X11047501Y3860000D02*
X11207501D01*
X4322501Y1460000D02*
Y1540000D01*
X4162501Y1460000D02*
Y1540000D01*
X4322501D01*
X4162501Y1460000D02*
X4322501D01*
X6622501D02*
Y1540000D01*
X6462501Y1460000D02*
Y1540000D01*
X6622501D01*
X6462501Y1460000D02*
X6622501D01*
X11202501D02*
Y1540000D01*
X11042501Y1460000D02*
Y1540000D01*
X11202501D01*
X11042501Y1460000D02*
X11202501D01*
X13522501Y3860000D02*
Y3940000D01*
X13362502Y3860000D02*
Y3940000D01*
X13522501D01*
X13362502Y3860000D02*
X13522501D01*
X15822501Y3860000D02*
Y3940000D01*
X15662502Y3860000D02*
Y3940000D01*
X15822501D01*
X15662502Y3860000D02*
X15822501D01*
X18122501Y3860000D02*
Y3940000D01*
X17962502Y3860000D02*
Y3940000D01*
X18122501D01*
X17962502Y3860000D02*
X18122501D01*
X20039999Y4417500D02*
X20120000D01*
X20039999Y4257500D02*
X20120000D01*
X20039999D02*
Y4417500D01*
X20120000Y4257500D02*
Y4417500D01*
X13522501Y1460000D02*
Y1540000D01*
X13362502Y1460000D02*
Y1540000D01*
X13522501D01*
X13362502Y1460000D02*
X13522501D01*
X15822501D02*
Y1540000D01*
X15662502Y1460000D02*
Y1540000D01*
X15822501D01*
X15662502Y1460000D02*
X15822501D01*
X18122501D02*
Y1540000D01*
X17962502Y1460000D02*
Y1540000D01*
X18122501D01*
X17962502Y1460000D02*
X18122501D01*
X20422501D02*
Y1540000D01*
X20262502Y1460000D02*
Y1540000D01*
X20422501D01*
X20262502Y1460000D02*
X20422501D01*
X27322501Y3860000D02*
Y3940000D01*
X27162500Y3860000D02*
Y3940000D01*
X27322501D01*
X27162500Y3860000D02*
X27322501D01*
X29622501Y3860000D02*
Y3940000D01*
X29462500Y3860000D02*
Y3940000D01*
X29622501D01*
X29462500Y3860000D02*
X29622501D01*
X31922501Y3860000D02*
Y3940000D01*
X31762500Y3860000D02*
Y3940000D01*
X31922501D01*
X31762500Y3860000D02*
X31922501D01*
X34207501Y3860000D02*
Y3940000D01*
X34047501Y3860000D02*
Y3940000D01*
X34207501D01*
X34047501Y3860000D02*
X34207501D01*
X41595001Y3470000D02*
X41675000D01*
X41595001Y3310000D02*
X41675000D01*
X41595001D02*
Y3470000D01*
X41675000Y3310000D02*
Y3470000D01*
X41789999Y3575000D02*
Y3655000D01*
X41630002Y3575000D02*
Y3655000D01*
X41789999D01*
X41630002Y3575000D02*
X41789999D01*
X41629999Y3125000D02*
Y3205000D01*
X41789999Y3125000D02*
Y3205000D01*
X41629999Y3125000D02*
X41789999D01*
X41629999Y3205000D02*
X41789999D01*
X41789999Y2975000D02*
Y3055000D01*
X41630002Y2975000D02*
Y3055000D01*
X41789999D01*
X41630002Y2975000D02*
X41789999D01*
X8922501Y1460000D02*
Y1540000D01*
X8762501Y1460000D02*
Y1540000D01*
X8922501D01*
X8762501Y1460000D02*
X8922501D01*
X27322501D02*
Y1540000D01*
X27162500Y1460000D02*
Y1540000D01*
X27322501D01*
X27162500Y1460000D02*
X27322501D01*
X29622501D02*
Y1540000D01*
X29462500Y1460000D02*
Y1540000D01*
X29622501D01*
X29462500Y1460000D02*
X29622501D01*
X31922501D02*
Y1540000D01*
X31762500Y1460000D02*
Y1540000D01*
X31922501D01*
X31762500Y1460000D02*
X31922501D01*
X31922501Y3710000D02*
Y3790000D01*
X31762500Y3710000D02*
Y3790000D01*
X31922501D01*
X31762500Y3710000D02*
X31922501D01*
X33835001Y3745000D02*
X33915002D01*
X33835001Y3585000D02*
X33915002D01*
X33835001D02*
Y3745000D01*
X33915002Y3585000D02*
Y3745000D01*
X27322501Y1310000D02*
Y1390000D01*
X27162500Y1310000D02*
Y1390000D01*
X27322501D01*
X27162500Y1310000D02*
X27322501D01*
X29622501D02*
Y1390000D01*
X29462500Y1310000D02*
Y1390000D01*
X29622501D01*
X29462500Y1310000D02*
X29622501D01*
X33835001Y1355000D02*
X33914999D01*
X33835001Y1195000D02*
X33914999D01*
X33835001D02*
Y1355000D01*
X33914999Y1195000D02*
Y1355000D01*
X25985001Y10142500D02*
Y10222500D01*
X25825000Y10142500D02*
Y10222500D01*
X25985001D01*
X25825000Y10142500D02*
X25985001D01*
X30585001D02*
Y10222500D01*
X30425000Y10142500D02*
Y10222500D01*
X30585001D01*
X30425000Y10142500D02*
X30585001D01*
X38818250Y805000D02*
Y1115002D01*
X38998254Y805000D02*
Y1115002D01*
X38818250D02*
X38998254D01*
X38818250Y805000D02*
X38998254D01*
X38425000Y1007500D02*
X38505002D01*
X38425000Y1167500D02*
X38505002D01*
X38425000Y1007500D02*
Y1167500D01*
X38505002Y1007500D02*
Y1167500D01*
X38857501Y1400000D02*
X39002502D01*
X38857501Y1220000D02*
X39002502D01*
Y1400000D01*
X38857501Y1220000D02*
Y1400000D01*
X38725000Y1395000D02*
X38805002D01*
X38725000Y1235000D02*
X38805002D01*
Y1395000D01*
X38725000Y1235000D02*
Y1395000D01*
X39392502Y1017500D02*
Y1142500D01*
X39192502Y1017500D02*
Y1142500D01*
Y1017500D02*
X39392502D01*
X39192502Y1142500D02*
X39392502D01*
X38790002Y1515000D02*
Y1595000D01*
X38950000Y1515000D02*
Y1595000D01*
X38790002D02*
X38950000D01*
X38790002Y1515000D02*
X38950000D01*
Y1665000D02*
Y1745000D01*
X38790002Y1665000D02*
Y1745000D01*
Y1665000D02*
X38950000D01*
X38790002Y1745000D02*
X38950000D01*
X39372501Y1752500D02*
Y1927500D01*
X39067502Y1752500D02*
Y1927500D01*
X39372501D01*
X39067502Y1752500D02*
X39372501D01*
X39160001Y2085000D02*
Y2165000D01*
X39320001Y2085000D02*
Y2165000D01*
X39160001D02*
X39320001D01*
X39160001Y2085000D02*
X39320001D01*
X39357501Y875000D02*
Y955000D01*
X39197501Y875000D02*
Y955000D01*
Y875000D02*
X39357501D01*
X39197501Y955000D02*
X39357501D01*
X38925000Y1850000D02*
X39005002D01*
X38925000Y2010000D02*
X39005002D01*
X38925000Y1850000D02*
Y2010000D01*
X39005002Y1850000D02*
Y2010000D01*
X41745001Y3470000D02*
X41825000D01*
X41745001Y3310000D02*
X41825000D01*
Y3470000D01*
X41745001Y3310000D02*
Y3470000D01*
X20272501Y4480000D02*
X20412502D01*
X20272501Y4180000D02*
X20412502D01*
X20272501D02*
Y4480000D01*
X20412502Y4180000D02*
Y4480000D01*
X24842500Y6403199D02*
X25042500D01*
X24842500Y6528199D02*
X25042500D01*
Y6403199D02*
Y6528199D01*
X24842500Y6403199D02*
Y6528199D01*
X20255000Y3265000D02*
X20914999D01*
X20255000Y2815000D02*
X20914999D01*
Y3265000D01*
X20255000Y2815000D02*
Y3265000D01*
X24865001Y3270000D02*
X25525002D01*
X24865001Y2820000D02*
X25525002D01*
Y3270000D01*
X24865001Y2820000D02*
Y3270000D01*
X24852501Y7357500D02*
Y7807500D01*
X25512502Y7357500D02*
Y7807500D01*
X24852501Y7357500D02*
X25512502D01*
X24852501Y7807500D02*
X25512502D01*
X25289999Y6092500D02*
Y6232500D01*
X24989999Y6092500D02*
Y6232500D01*
X25289999D01*
X24989999Y6092500D02*
X25289999D01*
X27387500Y6007500D02*
Y6167500D01*
X27307501Y6007500D02*
Y6167500D01*
X27387500D01*
X27307501Y6007500D02*
X27387500D01*
X27142502Y7222500D02*
X27302502D01*
X27142502Y7302500D02*
X27302502D01*
Y7222500D02*
Y7302500D01*
X27142502Y7222500D02*
Y7302500D01*
X26295001Y7815000D02*
X26455002D01*
X26295001Y7735000D02*
X26455002D01*
X26295001D02*
Y7815000D01*
X26455002Y7735000D02*
Y7815000D01*
X2320001Y5415000D02*
X2400001D01*
X2320001Y5255000D02*
X2400001D01*
X2320001D02*
Y5415000D01*
X2400001Y5255000D02*
Y5415000D01*
X41457501Y2092500D02*
Y2172500D01*
X41297501Y2092500D02*
Y2172500D01*
Y2092500D02*
X41457501D01*
X41297501Y2172500D02*
X41457501D01*
X41297000Y2365000D02*
X41497000D01*
X41297000Y2240000D02*
X41497000D01*
X41297000D02*
Y2365000D01*
X41497000Y2240000D02*
Y2365000D01*
X40633752Y1040000D02*
X41066251D01*
X40510001Y916250D02*
X40633752Y1040000D01*
X40510001Y360000D02*
Y916250D01*
Y360000D02*
X41190002D01*
Y916250D01*
X41066251Y1040000D02*
X41190002Y916250D01*
X36372501Y1240000D02*
X36512500D01*
X36372501Y1540000D02*
X36512500D01*
Y1240000D02*
Y1540000D01*
X36372501Y1240000D02*
Y1540000D01*
X36707501Y2917500D02*
X36787500D01*
X36707501Y2757500D02*
X36787500D01*
X36707501D02*
Y2917500D01*
X36787500Y2757500D02*
Y2917500D01*
X36707501Y3217500D02*
X36787500D01*
X36707501Y3057500D02*
X36787500D01*
X36707501D02*
Y3217500D01*
X36787500Y3057500D02*
Y3217500D01*
X36707501Y2457500D02*
X36787500D01*
X36707501Y2617500D02*
X36787500D01*
Y2457500D02*
Y2617500D01*
X36707501Y2457500D02*
Y2617500D01*
X2270001Y5862500D02*
X2430001D01*
X2270001Y5942500D02*
X2430001D01*
Y5862500D02*
Y5942500D01*
X2270001Y5862500D02*
Y5942500D01*
X3562501Y5890000D02*
Y6050000D01*
X3642501Y5890000D02*
Y6050000D01*
X3562501Y5890000D02*
X3642501D01*
X3562501Y6050000D02*
X3642501D01*
X2910001Y5890000D02*
Y6050000D01*
X2990001Y5890000D02*
Y6050000D01*
X2910001Y5890000D02*
X2990001D01*
X2910001Y6050000D02*
X2990001D01*
X38032501Y2262500D02*
Y2342500D01*
X37872501Y2262500D02*
Y2342500D01*
X38032501D01*
X37872501Y2262500D02*
X38032501D01*
X37872501Y2112500D02*
Y2192500D01*
X38032501Y2112500D02*
Y2192500D01*
X37872501Y2112500D02*
X38032501D01*
X37872501Y2192500D02*
X38032501D01*
X38415002Y2702500D02*
Y2782500D01*
X38255002Y2702500D02*
Y2782500D01*
X38415002D01*
X38255002Y2702500D02*
X38415002D01*
X38160001Y2357497D02*
X38470001D01*
X38160001Y2537501D02*
X38470001D01*
X38160001Y2357497D02*
Y2537501D01*
X38470001Y2357497D02*
Y2537501D01*
X37122501Y2357497D02*
X37432501D01*
X37122501Y2537501D02*
X37432501D01*
X37122501Y2357497D02*
Y2537501D01*
X37432501Y2357497D02*
Y2537501D01*
X37572501Y2262500D02*
Y2342500D01*
X37732501Y2262500D02*
Y2342500D01*
X37572501Y2262500D02*
X37732501D01*
X37572501Y2342500D02*
X37732501D01*
Y2112500D02*
Y2192500D01*
X37572501Y2112500D02*
Y2192500D01*
X37732501D01*
X37572501Y2112500D02*
X37732501D01*
X37377502Y2702500D02*
Y2782500D01*
X37217502Y2702500D02*
Y2782500D01*
X37377502D01*
X37217502Y2702500D02*
X37377502D01*
X4621601Y11550000D02*
X4821601D01*
X4621601Y11425000D02*
X4821601D01*
X4621601D02*
Y11550000D01*
X4821601Y11425000D02*
Y11550000D01*
X9182501Y6857300D02*
Y6982300D01*
X9382501Y6857300D02*
Y6982300D01*
X9182501D02*
X9382501D01*
X9182501Y6857300D02*
X9382501D01*
X2170001Y5175000D02*
X2250001D01*
X2170001Y5015000D02*
X2250001D01*
X2170001D02*
Y5175000D01*
X2250001Y5015000D02*
Y5175000D01*
X2527501Y6147500D02*
X2832501D01*
X2527501Y5972500D02*
X2832501D01*
Y6147500D01*
X2527501Y5972500D02*
Y6147500D01*
X36495001Y5202500D02*
Y5362500D01*
X36415002Y5202500D02*
Y5362500D01*
X36495001D01*
X36415002Y5202500D02*
X36495001D01*
X1875001Y2565000D02*
Y3015000D01*
X2535001Y2565000D02*
Y3015000D01*
X1875001Y2565000D02*
X2535001D01*
X1875001Y3015000D02*
X2535001D01*
X23718001Y2732500D02*
Y2812500D01*
X23878001Y2732500D02*
Y2812500D01*
X23718001D02*
X23878001D01*
X23718001Y2732500D02*
X23878001D01*
X25600000Y2595000D02*
X25680002D01*
X25600000Y2755000D02*
X25680002D01*
X25600000Y2595000D02*
Y2755000D01*
X25680002Y2595000D02*
Y2755000D01*
X24725002Y2845000D02*
X24805000D01*
X24725002Y3005000D02*
X24805000D01*
X24725002Y2845000D02*
Y3005000D01*
X24805000Y2845000D02*
Y3005000D01*
X21727499Y2537500D02*
Y2617500D01*
X21567500Y2537500D02*
Y2617500D01*
Y2537500D02*
X21727499D01*
X21567500Y2617500D02*
X21727499D01*
X21075000Y2535000D02*
X21155000D01*
X21075000Y2695000D02*
X21155000D01*
X21075000Y2535000D02*
Y2695000D01*
X21155000Y2535000D02*
Y2695000D01*
X21075000Y2835000D02*
X21155000D01*
X21075000Y2995000D02*
X21155000D01*
X21075000Y2835000D02*
Y2995000D01*
X21155000Y2835000D02*
Y2995000D01*
X718001Y2750000D02*
Y2830000D01*
X878001Y2750000D02*
Y2830000D01*
X718001D02*
X878001D01*
X718001Y2750000D02*
X878001D01*
X2802501Y2455000D02*
Y2535000D01*
X2642501Y2455000D02*
Y2535000D01*
Y2455000D02*
X2802501D01*
X2642501Y2535000D02*
X2802501D01*
X1735001Y2802500D02*
X1815001D01*
X1735001Y2962500D02*
X1815001D01*
X1735001Y2802500D02*
Y2962500D01*
X1815001Y2802500D02*
Y2962500D01*
X38079501Y7225740D02*
Y7305740D01*
X37919501Y7225740D02*
Y7305740D01*
Y7225740D02*
X38079501D01*
X37919501Y7305740D02*
X38079501D01*
X36415002Y5692500D02*
X36495001D01*
X36415002Y5532500D02*
X36495001D01*
Y5692500D01*
X36415002Y5532500D02*
Y5692500D01*
X30077502Y11268000D02*
Y11348000D01*
X29917502Y11268000D02*
Y11348000D01*
Y11268000D02*
X30077502D01*
X29917502Y11348000D02*
X30077502D01*
X27257501Y11267500D02*
Y11347500D01*
X27417502Y11267500D02*
Y11347500D01*
X27257501D02*
X27417502D01*
X27257501Y11267500D02*
X27417502D01*
X25595001Y7282500D02*
X25675000D01*
X25595001Y7442500D02*
X25675000D01*
X25595001Y7282500D02*
Y7442500D01*
X25675000Y7282500D02*
Y7442500D01*
X25255000Y8115000D02*
Y8195000D01*
X25415001Y8115000D02*
Y8195000D01*
X25255000D02*
X25415001D01*
X25255000Y8115000D02*
X25415001D01*
X41542502Y1772500D02*
Y1852500D01*
X41382501Y1772500D02*
Y1852500D01*
Y1772500D02*
X41542502D01*
X41382501Y1852500D02*
X41542502D01*
X41532501Y1922500D02*
Y2002500D01*
X41692502Y1922500D02*
Y2002500D01*
X41532501D02*
X41692502D01*
X41532501Y1922500D02*
X41692502D01*
X40510001Y1483750D02*
X40633752Y1360000D01*
X40510001Y1483750D02*
Y2040000D01*
X41190002D01*
Y1483750D02*
Y2040000D01*
X41066251Y1360000D02*
X41190002Y1483750D01*
X40633752Y1360000D02*
X41066251D01*
X41600000Y2167500D02*
X41680002D01*
X41600000Y2327500D02*
X41680002D01*
X41600000Y2167500D02*
Y2327500D01*
X41680002Y2167500D02*
Y2327500D01*
X41470001Y565000D02*
Y645000D01*
X41310001Y565000D02*
Y645000D01*
Y565000D02*
X41470001D01*
X41310001Y645000D02*
X41470001D01*
X41460001Y415000D02*
Y495000D01*
X41620001Y415000D02*
Y495000D01*
X41460001D02*
X41620001D01*
X41460001Y415000D02*
X41620001D01*
X11067502Y3500000D02*
Y3800000D01*
X11207502Y3500000D02*
Y3800000D01*
X11067502D02*
X11207502D01*
X11067502Y3500000D02*
X11207502D01*
X37215002Y5167500D02*
Y5617500D01*
X36555002Y5167500D02*
Y5617500D01*
X37215002D01*
X36555002Y5167500D02*
X37215002D01*
X31912500Y10455000D02*
Y10630000D01*
X32217502Y10455000D02*
Y10630000D01*
X31912500Y10455000D02*
X32217502D01*
X31912500Y10630000D02*
X32217502D01*
X32182501Y10787500D02*
Y10867500D01*
X32342502Y10787500D02*
Y10867500D01*
X32182501D02*
X32342502D01*
X32182501Y10787500D02*
X32342502D01*
X32042502D02*
Y10867500D01*
X31882501Y10787500D02*
Y10867500D01*
Y10787500D02*
X32042502D01*
X31882501Y10867500D02*
X32042502D01*
X31770001Y10522500D02*
X31850000D01*
X31770001Y10682500D02*
X31850000D01*
X31770001Y10522500D02*
Y10682500D01*
X31850000Y10522500D02*
Y10682500D01*
X36900000Y3345000D02*
Y3505000D01*
X36980002Y3345000D02*
Y3505000D01*
X36900000D02*
X36980002D01*
X36900000Y3345000D02*
X36980002D01*
X37432501Y2112500D02*
Y2192500D01*
X37272501Y2112500D02*
Y2192500D01*
Y2112500D02*
X37432501D01*
X37272501Y2192500D02*
X37432501D01*
X38172501Y2112500D02*
Y2192500D01*
X38332501Y2112500D02*
Y2192500D01*
X38172501D02*
X38332501D01*
X38172501Y2112500D02*
X38332501D01*
X37865002Y2772500D02*
Y2852500D01*
X38025000Y2772500D02*
Y2852500D01*
X37865002D02*
X38025000D01*
X37865002Y2772500D02*
X38025000D01*
X36342502Y4002580D02*
Y4127580D01*
X36542502Y4002580D02*
Y4127580D01*
X36342502D02*
X36542502D01*
X36342502Y4002580D02*
X36542502D01*
X36512500Y3637500D02*
Y3937500D01*
X36372501Y3637500D02*
Y3937500D01*
Y3637500D02*
X36512500D01*
X36372501Y3937500D02*
X36512500D01*
X36336252Y3565000D02*
X36496252D01*
X36336252Y3485000D02*
X36496252D01*
Y3565000D01*
X36336252Y3485000D02*
Y3565000D01*
X36442502Y2122500D02*
Y2202500D01*
X36602502Y2122500D02*
Y2202500D01*
X36442502D02*
X36602502D01*
X36442502Y2122500D02*
X36602502D01*
X36160001Y2977500D02*
X36240002D01*
X36160001Y2817500D02*
X36240002D01*
Y2977500D01*
X36160001Y2817500D02*
Y2977500D01*
X36707501Y2157500D02*
Y2317500D01*
X36787500Y2157500D02*
Y2317500D01*
X36707501D02*
X36787500D01*
X36707501Y2157500D02*
X36787500D01*
X36542502Y1602420D02*
Y1727420D01*
X36342502Y1602420D02*
Y1727420D01*
Y1602420D02*
X36542502D01*
X36342502Y1727420D02*
X36542502D01*
X36377502Y1087500D02*
X36537500D01*
X36377502Y1167500D02*
X36537500D01*
X36377502Y1087500D02*
Y1167500D01*
X36537500Y1087500D02*
Y1167500D01*
X4305001Y5855000D02*
Y5935000D01*
X4145001Y5855000D02*
Y5935000D01*
Y5855000D02*
X4305001D01*
X4145001Y5935000D02*
X4305001D01*
Y6005000D02*
Y6085000D01*
X4145001Y6005000D02*
Y6085000D01*
Y6005000D02*
X4305001D01*
X4145001Y6085000D02*
X4305001D01*
X3412501Y6050000D02*
X3492501D01*
X3412501Y5890000D02*
X3492501D01*
Y6050000D01*
X3412501Y5890000D02*
Y6050000D01*
X3262501Y5052500D02*
Y5132500D01*
X3102502Y5052500D02*
Y5132500D01*
Y5052500D02*
X3262501D01*
X3102502Y5132500D02*
X3262501D01*
X2802501Y5052500D02*
Y5132500D01*
X2962501Y5052500D02*
Y5132500D01*
X2802501D02*
X2962501D01*
X2802501Y5052500D02*
X2962501D01*
X2635001Y5734100D02*
X3035001D01*
X2635001Y5234100D02*
X3035001D01*
X2635001D02*
Y5734100D01*
X3035001Y5234100D02*
Y5734100D01*
X3675001Y5261000D02*
X4075001D01*
X3675001Y5761000D02*
X4075001D01*
Y5261000D02*
Y5761000D01*
X3675001Y5261000D02*
Y5761000D01*
X3275001Y5447500D02*
X3435001D01*
X3275001Y5367500D02*
X3435001D01*
Y5447500D01*
X3275001Y5367500D02*
Y5447500D01*
X2250001Y5315001D02*
Y5475000D01*
X2170001Y5315001D02*
Y5475000D01*
Y5315001D02*
X2250001D01*
X2170001Y5475000D02*
X2250001D01*
X3275001Y5597500D02*
X3435001D01*
X3275001Y5517500D02*
X3435001D01*
Y5597500D01*
X3275001Y5517500D02*
Y5597500D01*
X2385001Y6047500D02*
X2465001D01*
X2385001Y6207500D02*
X2465001D01*
X2385001Y6047500D02*
Y6207500D01*
X2465001Y6047500D02*
Y6207500D01*
X2400001Y5555000D02*
Y5715000D01*
X2320001Y5555000D02*
Y5715000D01*
Y5555000D02*
X2400001D01*
X2320001Y5715000D02*
X2400001D01*
X38979999Y10872503D02*
X39290002D01*
X38979999Y10692498D02*
X39290002D01*
Y10872503D01*
X38979999Y10692498D02*
Y10872503D01*
X29442502Y1602537D02*
Y1727537D01*
X29642502Y1602537D02*
Y1727537D01*
X29442502D02*
X29642502D01*
X29442502Y1602537D02*
X29642502D01*
X29717502Y1392500D02*
X30017502D01*
X29717502Y1532500D02*
X30017502D01*
X29717502Y1392500D02*
Y1532500D01*
X30017502Y1392500D02*
Y1532500D01*
X9017501Y1392500D02*
X9317501D01*
X9017501Y1532500D02*
X9317501D01*
X9017501Y1392500D02*
Y1532500D01*
X9317501Y1392500D02*
Y1532500D01*
X8742501Y1602857D02*
Y1727857D01*
X8942501Y1602857D02*
Y1727857D01*
X8742501D02*
X8942501D01*
X8742501Y1602857D02*
X8942501D01*
X34042499Y1602537D02*
Y1727537D01*
X34242499Y1602537D02*
Y1727537D01*
X34042499D02*
X34242499D01*
X34042499Y1602537D02*
X34242499D01*
X34067499Y1100000D02*
Y1400000D01*
X34207501Y1100000D02*
Y1400000D01*
X34067499D02*
X34207501D01*
X34067499Y1100000D02*
X34207501D01*
X31742502Y1602537D02*
Y1727537D01*
X31942502Y1602537D02*
Y1727537D01*
X31742502D02*
X31942502D01*
X31742502Y1602537D02*
X31942502D01*
X32017502Y1392500D02*
X32317502D01*
X32017502Y1532500D02*
X32317502D01*
X32017502Y1392500D02*
Y1532500D01*
X32317502Y1392500D02*
Y1532500D01*
X27142502Y1602558D02*
Y1727558D01*
X27342502Y1602558D02*
Y1727558D01*
X27142502D02*
X27342502D01*
X27142502Y1602558D02*
X27342502D01*
X27417502Y1392500D02*
X27717502D01*
X27417502Y1532500D02*
X27717502D01*
X27417502Y1392500D02*
Y1532500D01*
X27717502Y1392500D02*
Y1532500D01*
X34042499Y4002580D02*
Y4127580D01*
X34242499Y4002580D02*
Y4127580D01*
X34042499D02*
X34242499D01*
X34042499Y4002580D02*
X34242499D01*
X34067502Y3500000D02*
Y3800000D01*
X34207501Y3500000D02*
Y3800000D01*
X34067502D02*
X34207501D01*
X34067502Y3500000D02*
X34207501D01*
X31742502Y4002601D02*
Y4127601D01*
X31942502Y4002601D02*
Y4127601D01*
X31742502D02*
X31942502D01*
X31742502Y4002601D02*
X31942502D01*
X32017502Y3792500D02*
X32317502D01*
X32017502Y3932500D02*
X32317502D01*
X32017502Y3792500D02*
Y3932500D01*
X32317502Y3792500D02*
Y3932500D01*
X29442502Y4002622D02*
Y4127622D01*
X29642502Y4002622D02*
Y4127622D01*
X29442502D02*
X29642502D01*
X29442502Y4002622D02*
X29642502D01*
X29717502Y3792500D02*
X30017502D01*
X29717502Y3932500D02*
X30017502D01*
X29717502Y3792500D02*
Y3932500D01*
X30017502Y3792500D02*
Y3932500D01*
X27142502Y4002644D02*
Y4127644D01*
X27342502Y4002644D02*
Y4127644D01*
X27142502D02*
X27342502D01*
X27142502Y4002644D02*
X27342502D01*
X27417502Y3792500D02*
X27717502D01*
X27417502Y3932500D02*
X27717502D01*
X27417502Y3792500D02*
Y3932500D01*
X27717502Y3792500D02*
Y3932500D01*
X20242500Y1602665D02*
Y1727665D01*
X20442500Y1602665D02*
Y1727665D01*
X20242500D02*
X20442500D01*
X20242500Y1602665D02*
X20442500D01*
X20517500Y1392500D02*
X20817500D01*
X20517500Y1532500D02*
X20817500D01*
X20517500Y1392500D02*
Y1532500D01*
X20817500Y1392500D02*
Y1532500D01*
X17942500Y1602686D02*
Y1727686D01*
X18142500Y1602686D02*
Y1727686D01*
X17942500D02*
X18142500D01*
X17942500Y1602686D02*
X18142500D01*
X18217500Y1392500D02*
X18517500D01*
X18217500Y1532500D02*
X18517500D01*
X18217500Y1392500D02*
Y1532500D01*
X18517500Y1392500D02*
Y1532500D01*
X15642500Y1602708D02*
Y1727708D01*
X15842500Y1602708D02*
Y1727708D01*
X15642500D02*
X15842500D01*
X15642500Y1602708D02*
X15842500D01*
X15917500Y1392500D02*
X16217500D01*
X15917500Y1532500D02*
X16217500D01*
X15917500Y1392500D02*
Y1532500D01*
X16217500Y1392500D02*
Y1532500D01*
X13342500Y1602729D02*
Y1727729D01*
X13542500Y1602729D02*
Y1727729D01*
X13342500D02*
X13542500D01*
X13342500Y1602729D02*
X13542500D01*
X13617500Y1392500D02*
X13917500D01*
X13617500Y1532500D02*
X13917500D01*
X13617500Y1392500D02*
Y1532500D01*
X13917500Y1392500D02*
Y1532500D01*
X20242500Y4002750D02*
Y4127750D01*
X20442500Y4002750D02*
Y4127750D01*
X20242500D02*
X20442500D01*
X20242500Y4002750D02*
X20442500D01*
X17942500Y4002772D02*
Y4127772D01*
X18142500Y4002772D02*
Y4127772D01*
X17942500D02*
X18142500D01*
X17942500Y4002772D02*
X18142500D01*
X18217500Y3792500D02*
X18517500D01*
X18217500Y3932500D02*
X18517500D01*
X18217500Y3792500D02*
Y3932500D01*
X18517500Y3792500D02*
Y3932500D01*
X15642500Y4002793D02*
Y4127793D01*
X15842500Y4002793D02*
Y4127793D01*
X15642500D02*
X15842500D01*
X15642500Y4002793D02*
X15842500D01*
X15917500Y3792500D02*
X16217500D01*
X15917500Y3932500D02*
X16217500D01*
X15917500Y3792500D02*
Y3932500D01*
X16217500Y3792500D02*
Y3932500D01*
X13342500Y4002814D02*
Y4127814D01*
X13542500Y4002814D02*
Y4127814D01*
X13342500D02*
X13542500D01*
X13342500Y4002814D02*
X13542500D01*
X13617500Y3792500D02*
X13917500D01*
X13617500Y3932500D02*
X13917500D01*
X13617500Y3792500D02*
Y3932500D01*
X13917500Y3792500D02*
Y3932500D01*
X11042501Y1602836D02*
Y1727836D01*
X11242501Y1602836D02*
Y1727836D01*
X11042501D02*
X11242501D01*
X11042501Y1602836D02*
X11242501D01*
X11067501Y1100000D02*
Y1400000D01*
X11207501Y1100000D02*
Y1400000D01*
X11067501D02*
X11207501D01*
X11067501Y1100000D02*
X11207501D01*
X6442501Y1602878D02*
Y1727878D01*
X6642501Y1602878D02*
Y1727878D01*
X6442501D02*
X6642501D01*
X6442501Y1602878D02*
X6642501D01*
X6717501Y1392500D02*
X7017501D01*
X6717501Y1532500D02*
X7017501D01*
X6717501Y1392500D02*
Y1532500D01*
X7017501Y1392500D02*
Y1532500D01*
X4142501Y1602900D02*
Y1727900D01*
X4342501Y1602900D02*
Y1727900D01*
X4142501D02*
X4342501D01*
X4142501Y1602900D02*
X4342501D01*
X4417501Y1392500D02*
X4717501D01*
X4417501Y1532500D02*
X4717501D01*
X4417501Y1392500D02*
Y1532500D01*
X4717501Y1392500D02*
Y1532500D01*
X11042501Y4002921D02*
Y4127921D01*
X11242501Y4002921D02*
Y4127921D01*
X11042501D02*
X11242501D01*
X11042501Y4002921D02*
X11242501D01*
X8742501Y4002942D02*
Y4127942D01*
X8942501Y4002942D02*
Y4127942D01*
X8742501D02*
X8942501D01*
X8742501Y4002942D02*
X8942501D01*
X9017501Y3792500D02*
X9317501D01*
X9017501Y3932500D02*
X9317501D01*
X9017501Y3792500D02*
Y3932500D01*
X9317501Y3792500D02*
Y3932500D01*
X6442501Y4002964D02*
Y4127964D01*
X6642501Y4002964D02*
Y4127964D01*
X6442501D02*
X6642501D01*
X6442501Y4002964D02*
X6642501D01*
X6717501Y3792500D02*
X7017501D01*
X6717501Y3932500D02*
X7017501D01*
X6717501Y3792500D02*
Y3932500D01*
X7017501Y3792500D02*
Y3932500D01*
X4142501Y4002985D02*
Y4127985D01*
X4342501Y4002985D02*
Y4127985D01*
X4142501D02*
X4342501D01*
X4142501Y4002985D02*
X4342501D01*
X4417501Y3792500D02*
X4717501D01*
X4417501Y3932500D02*
X4717501D01*
X4417501Y3792500D02*
Y3932500D01*
X4717501Y3792500D02*
Y3932500D01*
X36342502Y6403028D02*
Y6528028D01*
X36542502Y6403028D02*
Y6528028D01*
X36342502D02*
X36542502D01*
X36342502Y6403028D02*
X36542502D01*
X36010001Y6662500D02*
Y6962500D01*
X36150000Y6662500D02*
Y6962500D01*
X36010001D02*
X36150000D01*
X36010001Y6662500D02*
X36150000D01*
X34042502Y6403028D02*
Y6528028D01*
X34242502Y6403028D02*
Y6528028D01*
X34042502D02*
X34242502D01*
X34042502Y6403028D02*
X34242502D01*
X34317502Y6192500D02*
X34617502D01*
X34317502Y6332500D02*
X34617502D01*
X34317502Y6192500D02*
Y6332500D01*
X34617502Y6192500D02*
Y6332500D01*
X31742502Y6403049D02*
Y6528049D01*
X31942502Y6403049D02*
Y6528049D01*
X31742502D02*
X31942502D01*
X31742502Y6403049D02*
X31942502D01*
X32017502Y6192500D02*
X32317502D01*
X32017502Y6332500D02*
X32317502D01*
X32017502Y6192500D02*
Y6332500D01*
X32317502Y6192500D02*
Y6332500D01*
X29442502Y6403071D02*
Y6528071D01*
X29642502Y6403071D02*
Y6528071D01*
X29442502D02*
X29642502D01*
X29442502Y6403071D02*
X29642502D01*
X29717502Y6192500D02*
X30017502D01*
X29717502Y6332500D02*
X30017502D01*
X29717502Y6192500D02*
Y6332500D01*
X30017502Y6192500D02*
Y6332500D01*
X36342502Y8803092D02*
Y8928092D01*
X36542502Y8803092D02*
Y8928092D01*
X36342502D02*
X36542502D01*
X36342502Y8803092D02*
X36542502D01*
X36367502Y8300000D02*
Y8600000D01*
X36507501Y8300000D02*
Y8600000D01*
X36367502D02*
X36507501D01*
X36367502Y8300000D02*
X36507501D01*
X34042502Y8803113D02*
Y8928113D01*
X34242502Y8803113D02*
Y8928113D01*
X34042502D02*
X34242502D01*
X34042502Y8803113D02*
X34242502D01*
X34317502Y8592500D02*
X34617502D01*
X34317502Y8732500D02*
X34617502D01*
X34317502Y8592500D02*
Y8732500D01*
X34617502Y8592500D02*
Y8732500D01*
X31742502Y8803135D02*
Y8928135D01*
X31942502Y8803135D02*
Y8928135D01*
X31742502D02*
X31942502D01*
X31742502Y8803135D02*
X31942502D01*
X32017502Y8592500D02*
X32317502D01*
X32017502Y8732500D02*
X32317502D01*
X32017502Y8592500D02*
Y8732500D01*
X32317502Y8592500D02*
Y8732500D01*
X29442502Y8803156D02*
Y8928156D01*
X29642502Y8803156D02*
Y8928156D01*
X29442502D02*
X29642502D01*
X29442502Y8803156D02*
X29642502D01*
X29717502Y8592500D02*
X30017502D01*
X29717502Y8732500D02*
X30017502D01*
X29717502Y8592500D02*
Y8732500D01*
X30017502Y8592500D02*
Y8732500D01*
X22542500Y6403199D02*
Y6528199D01*
X22742500Y6403199D02*
Y6528199D01*
X22542500D02*
X22742500D01*
X22542500Y6403199D02*
X22742500D01*
X22817500Y6192500D02*
X23117500D01*
X22817500Y6332500D02*
X23117500D01*
X22817500Y6192500D02*
Y6332500D01*
X23117500Y6192500D02*
Y6332500D01*
X20242500Y6403220D02*
Y6528220D01*
X20442500Y6403220D02*
Y6528220D01*
X20242500D02*
X20442500D01*
X20242500Y6403220D02*
X20442500D01*
X20517500Y6192500D02*
X20817500D01*
X20517500Y6332500D02*
X20817500D01*
X20517500Y6192500D02*
Y6332500D01*
X20817500Y6192500D02*
Y6332500D01*
X17942500Y6403241D02*
Y6528241D01*
X18142500Y6403241D02*
Y6528241D01*
X17942500D02*
X18142500D01*
X17942500Y6403241D02*
X18142500D01*
X18217500Y6192500D02*
X18517500D01*
X18217500Y6332500D02*
X18517500D01*
X18217500Y6192500D02*
Y6332500D01*
X18517500Y6192500D02*
Y6332500D01*
X15642500Y6403263D02*
Y6528263D01*
X15842500Y6403263D02*
Y6528263D01*
X15642500D02*
X15842500D01*
X15642500Y6403263D02*
X15842500D01*
X15917500Y6192500D02*
X16217500D01*
X15917500Y6332500D02*
X16217500D01*
X15917500Y6192500D02*
Y6332500D01*
X16217500Y6192500D02*
Y6332500D01*
X13342500Y6403284D02*
Y6528284D01*
X13542500Y6403284D02*
Y6528284D01*
X13342500D02*
X13542500D01*
X13342500Y6403284D02*
X13542500D01*
X13617500Y6192500D02*
X13917500D01*
X13617500Y6332500D02*
X13917500D01*
X13617500Y6192500D02*
Y6332500D01*
X13917500Y6192500D02*
Y6332500D01*
X24842500Y8803305D02*
Y8928305D01*
X25042500Y8803305D02*
Y8928305D01*
X24842500D02*
X25042500D01*
X24842500Y8803305D02*
X25042500D01*
X25117500Y8592500D02*
X25417500D01*
X25117500Y8732500D02*
X25417500D01*
X25117500Y8592500D02*
Y8732500D01*
X25417500Y8592500D02*
Y8732500D01*
X22542500Y8803327D02*
Y8928327D01*
X22742500Y8803327D02*
Y8928327D01*
X22542500D02*
X22742500D01*
X22542500Y8803327D02*
X22742500D01*
X22817500Y8592500D02*
X23117500D01*
X22817500Y8732500D02*
X23117500D01*
X22817500Y8592500D02*
Y8732500D01*
X23117500Y8592500D02*
Y8732500D01*
X20242500Y8803348D02*
Y8928348D01*
X20442500Y8803348D02*
Y8928348D01*
X20242500D02*
X20442500D01*
X20242500Y8803348D02*
X20442500D01*
X20517500Y8592500D02*
X20817500D01*
X20517500Y8732500D02*
X20817500D01*
X20517500Y8592500D02*
Y8732500D01*
X20817500Y8592500D02*
Y8732500D01*
X17942500Y8803369D02*
Y8928369D01*
X18142500Y8803369D02*
Y8928369D01*
X17942500D02*
X18142500D01*
X17942500Y8803369D02*
X18142500D01*
X18217500Y8592500D02*
X18517500D01*
X18217500Y8732500D02*
X18517500D01*
X18217500Y8592500D02*
Y8732500D01*
X18517500Y8592500D02*
Y8732500D01*
X15642500Y8803390D02*
Y8928390D01*
X15842500Y8803390D02*
Y8928390D01*
X15642500D02*
X15842500D01*
X15642500Y8803390D02*
X15842500D01*
X15917500Y8592500D02*
X16217500D01*
X15917500Y8732500D02*
X16217500D01*
X15917500Y8592500D02*
Y8732500D01*
X16217500Y8592500D02*
Y8732500D01*
X13360001Y8802500D02*
Y8927500D01*
X13560001Y8802500D02*
Y8927500D01*
X13360001D02*
X13560001D01*
X13360001Y8802500D02*
X13560001D01*
X13617500Y8592500D02*
X13917500D01*
X13617500Y8732500D02*
X13917500D01*
X13617500Y8592500D02*
Y8732500D01*
X13917500Y8592500D02*
Y8732500D01*
X29917502Y11198000D02*
X30077502D01*
X29917502Y11118000D02*
X30077502D01*
X29917502D02*
Y11198000D01*
X30077502Y11118000D02*
Y11198000D01*
X27257501Y11117500D02*
X27417502D01*
X27257501Y11197500D02*
X27417502D01*
Y11117500D02*
Y11197500D01*
X27257501Y11117500D02*
Y11197500D01*
X13680000Y10875002D02*
X13990002D01*
X13680000Y10694998D02*
X13990002D01*
Y10875002D01*
X13680000Y10694998D02*
Y10875002D01*
X41279999Y8472502D02*
X41590002D01*
X41279999Y8292498D02*
X41590002D01*
Y8472502D01*
X41279999Y8292498D02*
Y8472502D01*
X41279999Y10872503D02*
X41590002D01*
X41279999Y10692498D02*
X41590002D01*
Y10872503D01*
X41279999Y10692498D02*
Y10872503D01*
X20580000D02*
X20890002D01*
X20580000Y10692498D02*
X20890002D01*
Y10872503D01*
X20580000Y10692498D02*
Y10872503D01*
X36679999D02*
X36990002D01*
X36679999Y10692498D02*
X36990002D01*
Y10872503D01*
X36679999Y10692498D02*
Y10872503D01*
X34379999D02*
X34690002D01*
X34379999Y10692498D02*
X34690002D01*
Y10872503D01*
X34379999Y10692498D02*
Y10872503D01*
X22880000D02*
X23190002D01*
X22880000Y10692498D02*
X23190002D01*
Y10872503D01*
X22880000Y10692498D02*
Y10872503D01*
X15980000D02*
X16290002D01*
X15980000Y10692498D02*
X16290002D01*
Y10872503D01*
X15980000Y10692498D02*
Y10872503D01*
X18280000D02*
X18590002D01*
X18280000Y10692498D02*
X18590002D01*
Y10872503D01*
X18280000Y10692498D02*
Y10872503D01*
X25180000D02*
X25490002D01*
X25180000Y10692498D02*
X25490002D01*
Y10872503D01*
X25180000Y10692498D02*
Y10872503D01*
X14050002Y10635001D02*
Y10795000D01*
X14130000Y10635001D02*
Y10795000D01*
X14050002Y10635001D02*
X14130000D01*
X14050002Y10795000D02*
X14130000D01*
X41650003Y5832501D02*
Y5992500D01*
X41730002Y5832501D02*
Y5992500D01*
X41650003Y5832501D02*
X41730002D01*
X41650003Y5992500D02*
X41730002D01*
X41650003Y8232501D02*
Y8392500D01*
X41730002Y8232501D02*
Y8392500D01*
X41650003Y8232501D02*
X41730002D01*
X41650003Y8392500D02*
X41730002D01*
X41650000Y10632501D02*
Y10792500D01*
X41730002Y10632501D02*
Y10792500D01*
X41650000Y10632501D02*
X41730002D01*
X41650000Y10792500D02*
X41730002D01*
X39350000Y10632501D02*
Y10792500D01*
X39430002Y10632501D02*
Y10792500D01*
X39350000Y10632501D02*
X39430002D01*
X39350000Y10792500D02*
X39430002D01*
X37050000Y10632501D02*
Y10792500D01*
X37130002Y10632501D02*
Y10792500D01*
X37050000Y10632501D02*
X37130002D01*
X37050000Y10792500D02*
X37130002D01*
X34750000Y10632501D02*
Y10792500D01*
X34830002Y10632501D02*
Y10792500D01*
X34750000Y10632501D02*
X34830002D01*
X34750000Y10792500D02*
X34830002D01*
X25570000Y10140000D02*
Y10300000D01*
X25489999Y10140000D02*
Y10300000D01*
X25570000D01*
X25489999Y10140000D02*
X25570000D01*
X23250002Y10632501D02*
Y10792500D01*
X23330000Y10632501D02*
Y10792500D01*
X23250002Y10632501D02*
X23330000D01*
X23250002Y10792500D02*
X23330000D01*
X20950002Y10632501D02*
Y10792500D01*
X21030000Y10632501D02*
Y10792500D01*
X20950002Y10632501D02*
X21030000D01*
X20950002Y10792500D02*
X21030000D01*
X16350002Y10632501D02*
Y10792500D01*
X16430000Y10632501D02*
Y10792500D01*
X16350002Y10632501D02*
X16430000D01*
X16350002Y10792500D02*
X16430000D01*
X18650002Y10632501D02*
Y10792500D01*
X18730000Y10632501D02*
Y10792500D01*
X18650002Y10632501D02*
X18730000D01*
X18650002Y10792500D02*
X18730000D01*
X20647501Y10377500D02*
X20807501D01*
X20647501Y10297500D02*
X20807501D01*
X20647501D02*
Y10377500D01*
X20807501Y10297500D02*
Y10377500D01*
X20080000Y10612500D02*
Y10772500D01*
X20160001Y10612500D02*
Y10772500D01*
X20080000Y10612500D02*
X20160001D01*
X20080000Y10772500D02*
X20160001D01*
X13180000Y10775000D02*
X13260001D01*
X13180000Y10615000D02*
X13260001D01*
Y10775000D01*
X13180000Y10615000D02*
Y10775000D01*
X13907501Y10300000D02*
Y10380000D01*
X13747501Y10300000D02*
Y10380000D01*
Y10300000D02*
X13907501D01*
X13747501Y10380000D02*
X13907501D01*
X41279999Y5892498D02*
Y6072502D01*
X41590002Y5892498D02*
Y6072502D01*
X41279999Y5892498D02*
X41590002D01*
X41279999Y6072502D02*
X41590002D01*
X41507501Y5497500D02*
Y5577500D01*
X41347501Y5497500D02*
Y5577500D01*
Y5497500D02*
X41507501D01*
X41347501Y5577500D02*
X41507501D01*
X40780002Y5972500D02*
X40860001D01*
X40780002Y5812500D02*
X40860001D01*
Y5972500D01*
X40780002Y5812500D02*
Y5972500D01*
X41160001Y6400000D02*
Y6525000D01*
X40960001Y6400000D02*
Y6525000D01*
Y6400000D02*
X41160001D01*
X40960001Y6525000D02*
X41160001D01*
X41482501Y6227500D02*
Y6527500D01*
X41342502Y6227500D02*
Y6527500D01*
Y6227500D02*
X41482501D01*
X41342502Y6527500D02*
X41482501D01*
X41507501Y7897500D02*
Y7977500D01*
X41347501Y7897500D02*
Y7977500D01*
Y7897500D02*
X41507501D01*
X41347501Y7977500D02*
X41507501D01*
X40780002Y8372500D02*
X40860001D01*
X40780002Y8212500D02*
X40860001D01*
Y8372500D01*
X40780002Y8212500D02*
Y8372500D01*
X41160001Y8800000D02*
Y8925000D01*
X40960001Y8800000D02*
Y8925000D01*
Y8800000D02*
X41160001D01*
X40960001Y8925000D02*
X41160001D01*
X41482501Y8627500D02*
Y8927500D01*
X41342502Y8627500D02*
Y8927500D01*
Y8627500D02*
X41482501D01*
X41342502Y8927500D02*
X41482501D01*
X41507501Y10297500D02*
Y10377500D01*
X41347501Y10297500D02*
Y10377500D01*
Y10297500D02*
X41507501D01*
X41347501Y10377500D02*
X41507501D01*
X40780002Y10772500D02*
X40860001D01*
X40780002Y10612500D02*
X40860001D01*
Y10772500D01*
X40780002Y10612500D02*
Y10772500D01*
X41160001Y11200000D02*
Y11325000D01*
X40960001Y11200000D02*
Y11325000D01*
Y11200000D02*
X41160001D01*
X40960001Y11325000D02*
X41160001D01*
X41482501Y11027500D02*
Y11327500D01*
X41342502Y11027500D02*
Y11327500D01*
Y11027500D02*
X41482501D01*
X41342502Y11327500D02*
X41482501D01*
X39207501Y10297500D02*
Y10377500D01*
X39047501Y10297500D02*
Y10377500D01*
Y10297500D02*
X39207501D01*
X39047501Y10377500D02*
X39207501D01*
X38480002Y10772500D02*
X38560001D01*
X38480002Y10612500D02*
X38560001D01*
Y10772500D01*
X38480002Y10612500D02*
Y10772500D01*
X38860001Y11200000D02*
Y11325000D01*
X38660001Y11200000D02*
Y11325000D01*
Y11200000D02*
X38860001D01*
X38660001Y11325000D02*
X38860001D01*
X39182501Y11027500D02*
Y11327500D01*
X39042502Y11027500D02*
Y11327500D01*
Y11027500D02*
X39182501D01*
X39042502Y11327500D02*
X39182501D01*
X36907501Y10297500D02*
Y10377500D01*
X36747501Y10297500D02*
Y10377500D01*
Y10297500D02*
X36907501D01*
X36747501Y10377500D02*
X36907501D01*
X36180002Y10772500D02*
X36260001D01*
X36180002Y10612500D02*
X36260001D01*
Y10772500D01*
X36180002Y10612500D02*
Y10772500D01*
X36560001Y11200000D02*
Y11325000D01*
X36360001Y11200000D02*
Y11325000D01*
Y11200000D02*
X36560001D01*
X36360001Y11325000D02*
X36560001D01*
X36882501Y11027500D02*
Y11327500D01*
X36742502Y11027500D02*
Y11327500D01*
Y11027500D02*
X36882501D01*
X36742502Y11327500D02*
X36882501D01*
X34607501Y10297500D02*
Y10377500D01*
X34447501Y10297500D02*
Y10377500D01*
Y10297500D02*
X34607501D01*
X34447501Y10377500D02*
X34607501D01*
X33880002Y10772500D02*
X33960001D01*
X33880002Y10612500D02*
X33960001D01*
Y10772500D01*
X33880002Y10612500D02*
Y10772500D01*
X34260001Y11200000D02*
Y11325000D01*
X34060001Y11200000D02*
Y11325000D01*
Y11200000D02*
X34260001D01*
X34060001Y11325000D02*
X34260001D01*
X34582501Y11027500D02*
Y11327500D01*
X34442502Y11027500D02*
Y11327500D01*
Y11027500D02*
X34582501D01*
X34442502Y11327500D02*
X34582501D01*
X25190001Y10140000D02*
X25270001D01*
X25190001Y10300000D02*
X25270001D01*
X25190001Y10140000D02*
Y10300000D01*
X25270001Y10140000D02*
Y10300000D01*
X24680000Y10772500D02*
X24760001D01*
X24680000Y10612500D02*
X24760001D01*
Y10772500D01*
X24680000Y10612500D02*
Y10772500D01*
X25060001Y11200000D02*
Y11325000D01*
X24860001Y11200000D02*
Y11325000D01*
Y11200000D02*
X25060001D01*
X24860001Y11325000D02*
X25060001D01*
X25382501Y11027500D02*
Y11327500D01*
X25242500Y11027500D02*
Y11327500D01*
Y11027500D02*
X25382501D01*
X25242500Y11327500D02*
X25382501D01*
X23107501Y10297500D02*
Y10377500D01*
X22947501Y10297500D02*
Y10377500D01*
Y10297500D02*
X23107501D01*
X22947501Y10377500D02*
X23107501D01*
X22380000Y10772500D02*
X22460001D01*
X22380000Y10612500D02*
X22460001D01*
Y10772500D01*
X22380000Y10612500D02*
Y10772500D01*
X22760001Y11200000D02*
Y11325000D01*
X22560001Y11200000D02*
Y11325000D01*
Y11200000D02*
X22760001D01*
X22560001Y11325000D02*
X22760001D01*
X23082501Y11027500D02*
Y11327500D01*
X22942500Y11027500D02*
Y11327500D01*
Y11027500D02*
X23082501D01*
X22942500Y11327500D02*
X23082501D01*
X20460001Y11200000D02*
Y11325000D01*
X20260001Y11200000D02*
Y11325000D01*
Y11200000D02*
X20460001D01*
X20260001Y11325000D02*
X20460001D01*
X20782501Y11027500D02*
Y11327500D01*
X20642500Y11027500D02*
Y11327500D01*
Y11027500D02*
X20782501D01*
X20642500Y11327500D02*
X20782501D01*
X18507501Y10297500D02*
Y10377500D01*
X18347501Y10297500D02*
Y10377500D01*
Y10297500D02*
X18507501D01*
X18347501Y10377500D02*
X18507501D01*
X17780000Y10772500D02*
X17860001D01*
X17780000Y10612500D02*
X17860001D01*
Y10772500D01*
X17780000Y10612500D02*
Y10772500D01*
X18160001Y11200000D02*
Y11325000D01*
X17960001Y11200000D02*
Y11325000D01*
Y11200000D02*
X18160001D01*
X17960001Y11325000D02*
X18160001D01*
X18482501Y11027500D02*
Y11327500D01*
X18342500Y11027500D02*
Y11327500D01*
Y11027500D02*
X18482501D01*
X18342500Y11327500D02*
X18482501D01*
X16207501Y10297500D02*
Y10377500D01*
X16047501Y10297500D02*
Y10377500D01*
Y10297500D02*
X16207501D01*
X16047501Y10377500D02*
X16207501D01*
X15480000Y10772500D02*
X15560001D01*
X15480000Y10612500D02*
X15560001D01*
Y10772500D01*
X15480000Y10612500D02*
Y10772500D01*
X15860001Y11200000D02*
Y11325000D01*
X15660001Y11200000D02*
Y11325000D01*
Y11200000D02*
X15860001D01*
X15660001Y11325000D02*
X15860001D01*
X16182501Y11027500D02*
Y11327500D01*
X16042500Y11027500D02*
Y11327500D01*
Y11027500D02*
X16182501D01*
X16042500Y11327500D02*
X16182501D01*
X13560001Y11202500D02*
Y11327500D01*
X13360001Y11202500D02*
Y11327500D01*
Y11202500D02*
X13560001D01*
X13360001Y11327500D02*
X13560001D01*
X13882501Y11030000D02*
Y11330000D01*
X13742500Y11030000D02*
Y11330000D01*
Y11030000D02*
X13882501D01*
X13742500Y11330000D02*
X13882501D01*
X4059601Y11550000D02*
X4259601D01*
X4059601Y11425000D02*
X4259601D01*
X4059601D02*
Y11550000D01*
X4259601Y11425000D02*
Y11550000D01*
X3605601Y11425000D02*
X3805601D01*
X3605601Y11550000D02*
X3805601D01*
Y11425000D02*
Y11550000D01*
X3605601Y11425000D02*
Y11550000D01*
%TF.MD5,b30027c587c82339e7125c4861915658*%
M02*
