%TF.GenerationSoftware,Altium Limited,Altium Designer,25.6.2 (33)*%
G04 Layer_Color=0*
%FSLAX45Y45*%
%MOMM*%
%TF.SameCoordinates,AEC4D83D-968C-4175-8A4A-4F5F7F25AAED*%
%TF.FilePolarity,Positive*%
%TF.FileFunction,Plated,1,4,PTH,Drill*%
%TF.Part,Single*%
G01*
G75*
%TA.AperFunction,ComponentDrill*%
%ADD106C,0.80000*%
%ADD107C,1.10000*%
%ADD108O,0.80000X2.80000*%
%ADD109C,1.50000*%
%ADD110C,1.50000*%
%ADD111C,2.10000*%
%ADD112C,1.00000*%
%ADD113C,3.20000*%
%ADD114O,2.60000X0.80000*%
%TA.AperFunction,ViaDrill,NotFilled*%
%ADD115C,0.20000*%
%ADD116C,0.30480*%
D106*
X26427002Y6127000D02*
D03*
Y6889000D02*
D03*
Y7143000D02*
D03*
X26173001Y6127000D02*
D03*
Y6635000D02*
D03*
Y6889000D02*
D03*
Y7143000D02*
D03*
X26427002Y6635000D02*
D03*
X26173001Y6381000D02*
D03*
X26427002D02*
D03*
Y5365000D02*
D03*
X26173001Y5873000D02*
D03*
Y5619000D02*
D03*
Y5365000D02*
D03*
X26427002Y5873000D02*
D03*
Y5619000D02*
D03*
X24127000Y765000D02*
D03*
X23873001D02*
D03*
X24127000Y1273000D02*
D03*
X23873001D02*
D03*
X24127000Y1527000D02*
D03*
X23873001Y2035000D02*
D03*
Y1781000D02*
D03*
Y1527000D02*
D03*
Y1019000D02*
D03*
X24127000Y2035000D02*
D03*
Y1781000D02*
D03*
Y1019000D02*
D03*
X21827000Y765000D02*
D03*
X21573001D02*
D03*
X21827000Y1273000D02*
D03*
X21573001D02*
D03*
X21827000Y1527000D02*
D03*
X21573001Y2035000D02*
D03*
Y1781000D02*
D03*
Y1527000D02*
D03*
Y1019000D02*
D03*
X21827000Y2035000D02*
D03*
Y1781000D02*
D03*
Y1019000D02*
D03*
X1127001Y765000D02*
D03*
X873001D02*
D03*
X1127001Y1273000D02*
D03*
X873001D02*
D03*
X1127001Y1527000D02*
D03*
X873001Y2035000D02*
D03*
Y1781000D02*
D03*
Y1527000D02*
D03*
Y1019000D02*
D03*
X1127001Y2035000D02*
D03*
Y1781000D02*
D03*
Y1019000D02*
D03*
X37924500Y5365000D02*
D03*
X37670502D02*
D03*
X37924500Y5873000D02*
D03*
X37670502D02*
D03*
X37924500Y6127000D02*
D03*
X37670502Y6635000D02*
D03*
Y6381000D02*
D03*
Y6127000D02*
D03*
Y5619000D02*
D03*
X37924500Y6635000D02*
D03*
Y6381000D02*
D03*
Y5619000D02*
D03*
X29327002Y10546000D02*
D03*
X29073001D02*
D03*
X29327002Y10800000D02*
D03*
X29073001Y11308000D02*
D03*
Y11054000D02*
D03*
Y10800000D02*
D03*
Y10292000D02*
D03*
X29327002Y11308000D02*
D03*
Y11054000D02*
D03*
Y10292000D02*
D03*
X28127002Y10546000D02*
D03*
X27873001D02*
D03*
X28127002Y10800000D02*
D03*
X27873001Y11308000D02*
D03*
Y11054000D02*
D03*
Y10800000D02*
D03*
Y10292000D02*
D03*
X28127002Y11308000D02*
D03*
Y11054000D02*
D03*
Y10292000D02*
D03*
X37924500Y1073000D02*
D03*
X37670502D02*
D03*
Y1327000D02*
D03*
X37924500D02*
D03*
X7107601Y6919800D02*
D03*
X7361601D02*
D03*
X7615601D02*
D03*
X7869601D02*
D03*
X8123601D02*
D03*
X8377601D02*
D03*
X8885601D02*
D03*
X8631601D02*
D03*
X4821601D02*
D03*
X5075601D02*
D03*
X5329601D02*
D03*
X5583601D02*
D03*
X5837601D02*
D03*
X6091601D02*
D03*
X6599601D02*
D03*
X6345601D02*
D03*
X5329601Y11744302D02*
D03*
X5583601D02*
D03*
X5837601D02*
D03*
X6091601D02*
D03*
X6345601D02*
D03*
X6599601D02*
D03*
X7107601D02*
D03*
X6853601D02*
D03*
X2637201Y6919800D02*
D03*
X2891201D02*
D03*
X3145201D02*
D03*
X3399201D02*
D03*
X3653201D02*
D03*
X3907201D02*
D03*
X4415201D02*
D03*
X4161201D02*
D03*
X7615601Y11744302D02*
D03*
X7869601D02*
D03*
X8123601D02*
D03*
X8377601D02*
D03*
X8631601D02*
D03*
X8885601D02*
D03*
X3553500D02*
D03*
X3807500D02*
D03*
X4061500D02*
D03*
X4315500D02*
D03*
X4569500D02*
D03*
X4823500D02*
D03*
X9639601Y6919800D02*
D03*
X9893601D02*
D03*
X9896601Y11242799D02*
D03*
X9642601Y11240300D02*
D03*
X40000000Y2500000D02*
D03*
X39800000D02*
D03*
X40200000D02*
D03*
X40400000D02*
D03*
X40600000D02*
D03*
X39600000D02*
D03*
X9642601Y10986300D02*
D03*
X9896601Y10988799D02*
D03*
Y10734799D02*
D03*
X9642601Y10732300D02*
D03*
Y10478300D02*
D03*
Y9716300D02*
D03*
Y9462300D02*
D03*
X9896601Y10480799D02*
D03*
Y9972799D02*
D03*
Y9718799D02*
D03*
Y9464799D02*
D03*
X9642601Y9970300D02*
D03*
X9896601Y10226799D02*
D03*
X9642601Y10224300D02*
D03*
Y8954300D02*
D03*
X9896601Y8956799D02*
D03*
X9642601Y8700300D02*
D03*
X9896601Y8194799D02*
D03*
Y8448799D02*
D03*
Y8702799D02*
D03*
Y9210799D02*
D03*
X9642601Y8194799D02*
D03*
Y8446300D02*
D03*
Y9208300D02*
D03*
D107*
X1320001Y3850000D02*
D03*
X680001D02*
D03*
X1000001D02*
D03*
X24320001D02*
D03*
X23680000D02*
D03*
X24000002D02*
D03*
X38120001Y8650000D02*
D03*
X37480002D02*
D03*
X37800000D02*
D03*
X38120001Y3850000D02*
D03*
X37480002D02*
D03*
X37800000D02*
D03*
X38120001Y3350000D02*
D03*
X26300000Y8650000D02*
D03*
X25980002D02*
D03*
X26620001D02*
D03*
X21700002Y3850000D02*
D03*
X21380000D02*
D03*
X22020001D02*
D03*
X31220001Y10550000D02*
D03*
X26620001D02*
D03*
X21380000Y3350000D02*
D03*
X25980002Y8150000D02*
D03*
X37480002D02*
D03*
X23680000Y3350000D02*
D03*
X680001D02*
D03*
X31220001Y11050000D02*
D03*
X26620001D02*
D03*
X22020001Y3350000D02*
D03*
X26620001Y8150000D02*
D03*
X38120001D02*
D03*
X24320001Y3350000D02*
D03*
X1320001D02*
D03*
X30580002Y11050000D02*
D03*
X25980002D02*
D03*
X26300000Y10550000D02*
D03*
Y11050000D02*
D03*
X25980002Y10550000D02*
D03*
X30580002D02*
D03*
X30900000Y11050000D02*
D03*
Y10550000D02*
D03*
X21700002Y3350000D02*
D03*
X26300000Y8150000D02*
D03*
X37480002Y3350000D02*
D03*
X37800000D02*
D03*
Y8150000D02*
D03*
X24000002Y3350000D02*
D03*
X1000001D02*
D03*
D108*
X40350000Y1200000D02*
D03*
D109*
X35159991Y1540009D02*
D03*
X35840009Y859990D02*
D03*
X35159991D02*
D03*
X14459991Y8740009D02*
D03*
X15140012Y8059990D02*
D03*
X14459991D02*
D03*
X16759991Y8740009D02*
D03*
X17440012Y8059990D02*
D03*
X16759991D02*
D03*
X19059991Y8740009D02*
D03*
X19740012Y8059990D02*
D03*
X19059991D02*
D03*
X21359991Y8740009D02*
D03*
X22040012Y8059990D02*
D03*
X21359991D02*
D03*
X23659991Y8740009D02*
D03*
X24340012Y8059990D02*
D03*
X23659991D02*
D03*
X12159992Y6340009D02*
D03*
X12840012Y5659990D02*
D03*
X12159992D02*
D03*
X14459991Y6340009D02*
D03*
X15140012Y5659990D02*
D03*
X14459991D02*
D03*
X16759991Y6340009D02*
D03*
X17440012Y5659990D02*
D03*
X16759991D02*
D03*
X19059991Y6340009D02*
D03*
X19740012Y5659990D02*
D03*
X19059991D02*
D03*
X21359991Y6340009D02*
D03*
X22040012Y5659990D02*
D03*
X21359991D02*
D03*
X23659991Y6340009D02*
D03*
X24340012Y5659990D02*
D03*
X23659991D02*
D03*
X30559991Y8740009D02*
D03*
X31240009Y8059990D02*
D03*
X30559991D02*
D03*
X32859991Y8740009D02*
D03*
X33540009Y8059990D02*
D03*
X32859991D02*
D03*
X28259991Y6340009D02*
D03*
X28940009Y5659990D02*
D03*
X28259991D02*
D03*
X30559991Y6340009D02*
D03*
X31240009Y5659990D02*
D03*
X30559991D02*
D03*
X32859991Y6340009D02*
D03*
X33540009Y5659990D02*
D03*
X32859991D02*
D03*
X35159991Y6340009D02*
D03*
X35840009Y5659990D02*
D03*
X35159991D02*
D03*
X2959992Y3940009D02*
D03*
X3640011Y3259990D02*
D03*
X2959992D02*
D03*
X5259992Y3940009D02*
D03*
X5940011Y3259990D02*
D03*
X5259992D02*
D03*
X7559992Y3940009D02*
D03*
X8240011Y3259990D02*
D03*
X7559992D02*
D03*
X9859992Y3940009D02*
D03*
X10540011Y3259990D02*
D03*
X9859992D02*
D03*
X5259992Y1540009D02*
D03*
X5940011Y859990D02*
D03*
X5259992D02*
D03*
X7559992Y1540009D02*
D03*
X8240011Y859990D02*
D03*
X7559992D02*
D03*
X9859992Y1540009D02*
D03*
X10540011Y859990D02*
D03*
X9859992D02*
D03*
X12159992Y3940009D02*
D03*
X12840012Y3259990D02*
D03*
X12159992D02*
D03*
X14459991Y3940009D02*
D03*
X15140012Y3259990D02*
D03*
X14459991D02*
D03*
X16759991Y3940009D02*
D03*
X17440012Y3259990D02*
D03*
X16759991D02*
D03*
X19059991Y3940009D02*
D03*
X19740012Y3259990D02*
D03*
X19059991D02*
D03*
X12159992Y1540009D02*
D03*
X12840012Y859990D02*
D03*
X12159992D02*
D03*
X14459991Y1540009D02*
D03*
X15140012Y859990D02*
D03*
X14459991D02*
D03*
X16759991Y1540009D02*
D03*
X17440012Y859990D02*
D03*
X16759991D02*
D03*
X19059991Y1540009D02*
D03*
X19740012Y859990D02*
D03*
X19059991D02*
D03*
X25959991Y3940009D02*
D03*
X26640012Y3259990D02*
D03*
X25959991D02*
D03*
X28259991Y3940009D02*
D03*
X28940009Y3259990D02*
D03*
X28259991D02*
D03*
X30559991Y3940009D02*
D03*
X31240009Y3259990D02*
D03*
X30559991D02*
D03*
X32859991Y3940009D02*
D03*
X33540009Y3259990D02*
D03*
X32859991D02*
D03*
X25959991Y1540009D02*
D03*
X26640012Y859990D02*
D03*
X25959991D02*
D03*
X28259991Y1540009D02*
D03*
X28940009Y859990D02*
D03*
X28259991D02*
D03*
X30559991Y1540009D02*
D03*
X31240009Y859990D02*
D03*
X30559991D02*
D03*
X32859991Y1540009D02*
D03*
X33540009Y859990D02*
D03*
X32859991D02*
D03*
X12159992Y11140009D02*
D03*
X12840012Y10459991D02*
D03*
X12159992D02*
D03*
X14459991Y11140009D02*
D03*
X15140012Y10459991D02*
D03*
X14459991D02*
D03*
X16759991Y11140009D02*
D03*
X17440012Y10459991D02*
D03*
X16759991D02*
D03*
X19059991Y11140009D02*
D03*
X19740012Y10459991D02*
D03*
X19059991D02*
D03*
X21359991Y11140009D02*
D03*
X22040012Y10459991D02*
D03*
X21359991D02*
D03*
X23659991Y11140009D02*
D03*
X24340012Y10459991D02*
D03*
X23659991D02*
D03*
X32859991Y11140009D02*
D03*
X33540009Y10459991D02*
D03*
X32859991D02*
D03*
X35159991Y11140009D02*
D03*
X35840009Y10459991D02*
D03*
X35159991D02*
D03*
X37459991Y11140009D02*
D03*
X38140009Y10459991D02*
D03*
X37459991D02*
D03*
X39759991Y11140009D02*
D03*
X40440009Y10459991D02*
D03*
X39759991D02*
D03*
X39759991Y8740009D02*
D03*
X40440012Y8059990D02*
D03*
X39759991D02*
D03*
Y6340009D02*
D03*
X40440012Y5659990D02*
D03*
X39759991D02*
D03*
X28259991Y8059990D02*
D03*
X28940009D02*
D03*
X28259991Y8740009D02*
D03*
X35159991Y8059990D02*
D03*
X35840009D02*
D03*
X35159991Y8740009D02*
D03*
Y3259990D02*
D03*
X35840009D02*
D03*
X35159991Y3940009D02*
D03*
X12159992Y8059990D02*
D03*
X12840012D02*
D03*
X12159992Y8740009D02*
D03*
X2959992Y859990D02*
D03*
X3640011D02*
D03*
X2959992Y1540009D02*
D03*
D110*
X35840005Y1539994D02*
D03*
X15140005Y8739994D02*
D03*
X17440005Y8739994D02*
D03*
X19740005Y8739994D02*
D03*
X22040005Y8739994D02*
D03*
X24340005Y8739994D02*
D03*
X12840005Y6339994D02*
D03*
X15140005D02*
D03*
X17440005D02*
D03*
X19740005D02*
D03*
X22040005D02*
D03*
X24340005D02*
D03*
X31240005Y8739994D02*
D03*
X33540005Y8739994D02*
D03*
X28940005Y6339994D02*
D03*
X31240005D02*
D03*
X33540005D02*
D03*
X35840005D02*
D03*
X3640006Y3939994D02*
D03*
X5940006Y3939994D02*
D03*
X8240006Y3939994D02*
D03*
X10540006Y3939994D02*
D03*
X5940006Y1539994D02*
D03*
X8240006D02*
D03*
X10540006D02*
D03*
X12840005Y3939994D02*
D03*
X15140005Y3939994D02*
D03*
X17440005Y3939994D02*
D03*
X19740005Y3939994D02*
D03*
X12840005Y1539994D02*
D03*
X15140005D02*
D03*
X17440005D02*
D03*
X19740005D02*
D03*
X26640005Y3939994D02*
D03*
X28940005Y3939994D02*
D03*
X31240005Y3939994D02*
D03*
X33540005Y3939994D02*
D03*
X26640005Y1539994D02*
D03*
X28940005D02*
D03*
X31240005D02*
D03*
X33540005D02*
D03*
X12840005Y11139994D02*
D03*
X15140005D02*
D03*
X17440005D02*
D03*
X19740005D02*
D03*
X22040005D02*
D03*
X24340005D02*
D03*
X33540005D02*
D03*
X35840005D02*
D03*
X38140005D02*
D03*
X40440005D02*
D03*
X40440005Y8739994D02*
D03*
Y6339994D02*
D03*
X28940005Y8739994D02*
D03*
X35840005Y8739994D02*
D03*
Y3939994D02*
D03*
X12840005Y8739994D02*
D03*
X3640006Y1539994D02*
D03*
D111*
X40750000Y3600000D02*
D03*
X39450000D02*
D03*
D112*
X3300001Y1200000D02*
D03*
X12500001Y8400000D02*
D03*
X35500000Y3600000D02*
D03*
Y8400000D02*
D03*
X28600000Y8400000D02*
D03*
X40100000Y6000000D02*
D03*
Y8400000D02*
D03*
X40100000Y10800000D02*
D03*
X37800000D02*
D03*
X35500000D02*
D03*
X33200000D02*
D03*
X24000002D02*
D03*
X21700002D02*
D03*
X19400002D02*
D03*
X17100002D02*
D03*
X14800002D02*
D03*
X12500001D02*
D03*
X33200000Y1200000D02*
D03*
X30900000D02*
D03*
X28600000D02*
D03*
X26300000D02*
D03*
X33200000Y3600000D02*
D03*
X30900000Y3600000D02*
D03*
X28600000Y3600000D02*
D03*
X26300000Y3600000D02*
D03*
X19400002Y1200000D02*
D03*
X17100002D02*
D03*
X14800002D02*
D03*
X12500001D02*
D03*
X19400002Y3600000D02*
D03*
X17100002Y3600000D02*
D03*
X14800002Y3600000D02*
D03*
X12500001Y3600000D02*
D03*
X10200001Y1200000D02*
D03*
X7900001D02*
D03*
X5600001D02*
D03*
X10200001Y3600000D02*
D03*
X7900001Y3600000D02*
D03*
X5600001Y3600000D02*
D03*
X3300001Y3600000D02*
D03*
X35500000Y6000000D02*
D03*
X33200000D02*
D03*
X30900000D02*
D03*
X28600000D02*
D03*
X33200000Y8400000D02*
D03*
X30900000Y8400000D02*
D03*
X24000002Y6000000D02*
D03*
X21700002D02*
D03*
X19400002D02*
D03*
X17100002D02*
D03*
X14800002D02*
D03*
X12500001D02*
D03*
X24000002Y8400000D02*
D03*
X21700002Y8400000D02*
D03*
X19400002Y8400000D02*
D03*
X17100002Y8400000D02*
D03*
X14800002Y8400000D02*
D03*
X35500000Y1200000D02*
D03*
D113*
X527501Y6235000D02*
D03*
Y4965000D02*
D03*
D114*
X40100000Y950000D02*
D03*
Y1450000D02*
D03*
D115*
X41377502Y1144999D02*
D03*
Y1255000D02*
D03*
X41487500Y1144999D02*
D03*
Y1255000D02*
D03*
X41597501Y1144999D02*
D03*
Y1255000D02*
D03*
D116*
X39392502Y1227500D02*
D03*
X32257501Y1442501D02*
D03*
X32007501Y1200001D02*
D03*
X34137500Y1170000D02*
D03*
X603001Y2790000D02*
D03*
X38465002Y775000D02*
D03*
X38795001Y1850000D02*
D03*
X38855753Y960001D02*
D03*
X38930002Y1107500D02*
D03*
X39220001Y1794999D02*
D03*
X39352502Y825000D02*
D03*
X11137502Y3560000D02*
D03*
X41690002Y11007500D02*
D03*
X41300000Y11057500D02*
D03*
X39390002Y11007500D02*
D03*
X39000000Y11057500D02*
D03*
X36700000D02*
D03*
X41596252Y10340000D02*
D03*
X40820001Y10540000D02*
D03*
X41300000Y6257500D02*
D03*
X41690002Y6207500D02*
D03*
Y8607500D02*
D03*
X38520001Y10540000D02*
D03*
X39296252Y10340000D02*
D03*
X41300000Y8657500D02*
D03*
X34790002Y11007500D02*
D03*
X34400000Y11057500D02*
D03*
X36220001Y10540000D02*
D03*
X33920001D02*
D03*
X25200002Y11057500D02*
D03*
X24720001Y10540000D02*
D03*
X34696252Y10340000D02*
D03*
X32257501Y8642500D02*
D03*
X34557501Y8642500D02*
D03*
X29957501D02*
D03*
X25357501D02*
D03*
X40820001Y5740000D02*
D03*
X41596252Y5540000D02*
D03*
X40820001Y8140000D02*
D03*
X36437503Y8360000D02*
D03*
X41596252Y7940000D02*
D03*
X34557501Y6242500D02*
D03*
X34137500Y3560000D02*
D03*
X32257501Y6242500D02*
D03*
X29957501D02*
D03*
X25230000Y6142500D02*
D03*
X32257501Y3842500D02*
D03*
X29957501Y3842500D02*
D03*
Y1442500D02*
D03*
X27657501D02*
D03*
Y3842500D02*
D03*
X23290001Y11007500D02*
D03*
X22900002Y11057500D02*
D03*
X20600002D02*
D03*
X20990001Y11007500D02*
D03*
X18690001D02*
D03*
X22420001Y10540000D02*
D03*
X23196251Y10340000D02*
D03*
X20896251D02*
D03*
X23057501Y8642500D02*
D03*
X20120001Y10540000D02*
D03*
X18596251Y10340000D02*
D03*
X20757501Y8642500D02*
D03*
X18457501Y8642500D02*
D03*
X18300002Y11057500D02*
D03*
X16390001Y11007500D02*
D03*
X16000002Y11057500D02*
D03*
X14090001Y11007500D02*
D03*
X13700002Y11057500D02*
D03*
X17820001Y10540000D02*
D03*
X15520001D02*
D03*
X16296251Y10340000D02*
D03*
X16157501Y8642500D02*
D03*
X13996251Y10340000D02*
D03*
X13220001Y10540000D02*
D03*
X13857501Y8642500D02*
D03*
X23057501Y6242500D02*
D03*
X20757501D02*
D03*
X18457501D02*
D03*
X16157501D02*
D03*
X20757501Y1442500D02*
D03*
X18457501Y3842500D02*
D03*
Y1442500D02*
D03*
X16157501Y3842500D02*
D03*
Y1442500D02*
D03*
X13857501Y6242500D02*
D03*
Y3842500D02*
D03*
X9257501D02*
D03*
X6957501Y3842500D02*
D03*
X4657501Y3842500D02*
D03*
X13857501Y1442500D02*
D03*
X9257501D02*
D03*
X11137502Y1160000D02*
D03*
X6957501Y1442500D02*
D03*
X4657501D02*
D03*
X31770001Y10827500D02*
D03*
X31852502Y10407500D02*
D03*
X36996252Y10340000D02*
D03*
X37063760Y11007500D02*
D03*
X32337500Y10710000D02*
D03*
X2797501Y2375000D02*
D03*
X1775001Y2687500D02*
D03*
X21114999Y2420000D02*
D03*
X21722501Y2697500D02*
D03*
X25640002Y2480000D02*
D03*
X24765001Y2730000D02*
D03*
X1912501Y2615000D02*
D03*
X27347501Y5900000D02*
D03*
X25262502Y8270000D02*
D03*
X23723001Y2660000D02*
D03*
X36345001Y5687500D02*
D03*
Y5207500D02*
D03*
X38184500Y7265740D02*
D03*
X4300001Y6165000D02*
D03*
X4267501Y5320500D02*
D03*
X27142502Y11307500D02*
D03*
X30192502Y11308000D02*
D03*
X36625626Y3213125D02*
D03*
X36654376Y1126875D02*
D03*
X36260626Y3525625D02*
D03*
X36199377Y2700625D02*
D03*
X36450000Y2070000D02*
D03*
X36747501Y2072500D02*
D03*
X37132501Y2742500D02*
D03*
X37427502Y2062500D02*
D03*
X38177502D02*
D03*
X38500003Y2305000D02*
D03*
X37870001Y2902500D02*
D03*
X38170001Y2742500D02*
D03*
X37645001Y2392500D02*
D03*
X41545001Y2137500D02*
D03*
X41752502Y2562500D02*
D03*
X39062500Y2130000D02*
D03*
X9185001Y7072500D02*
D03*
X3505601Y11487500D02*
D03*
X4359601D02*
D03*
X4521601Y11487500D02*
D03*
X26907501Y6852500D02*
D03*
X36080002Y6722500D02*
D03*
X37242499Y5687500D02*
D03*
X27035001Y7262500D02*
D03*
X25629999Y10145000D02*
D03*
X25850000Y7287500D02*
D03*
X24782500Y7180000D02*
D03*
X21205000Y2840000D02*
D03*
X20202499Y2745000D02*
D03*
X41160001Y3775000D02*
D03*
X41485001Y4022500D02*
D03*
X41035001Y3537500D02*
D03*
X41185001Y2937500D02*
D03*
X41862500Y3465000D02*
D03*
X2527502Y7227500D02*
D03*
X4527502Y3227500D02*
D03*
X3527502Y9227500D02*
D03*
X6527502Y3227500D02*
D03*
X5527502Y5227500D02*
D03*
X6527502Y7227500D02*
D03*
X5527502Y9227500D02*
D03*
X8527502Y3227500D02*
D03*
X7527502Y5227500D02*
D03*
X8527502Y7227500D02*
D03*
X7527502Y9227500D02*
D03*
X11527502Y1227500D02*
D03*
X12527502Y3227500D02*
D03*
X11527502Y5227500D02*
D03*
X12527502Y7227500D02*
D03*
X11527502Y9227500D02*
D03*
X13527502Y5227500D02*
D03*
X14527502Y7227500D02*
D03*
X16527502Y3227500D02*
D03*
X15527502Y5227500D02*
D03*
X16527502Y7227500D02*
D03*
X18527502Y3227500D02*
D03*
X17527502Y5227500D02*
D03*
X18527502Y7227500D02*
D03*
X20527502D02*
D03*
X22527502Y3227500D02*
D03*
X21527502Y5227500D02*
D03*
X22527502Y7227500D02*
D03*
X23527502Y1227500D02*
D03*
X24527502Y3227500D02*
D03*
X23527502Y5227500D02*
D03*
X28527502Y3227500D02*
D03*
X27527502Y5227500D02*
D03*
X28527502Y7227500D02*
D03*
X27527502Y9227500D02*
D03*
X29527502Y5227500D02*
D03*
X30527502Y7227500D02*
D03*
X29527502Y9227500D02*
D03*
X32527502Y3227500D02*
D03*
X31527502Y5227500D02*
D03*
X32527502Y7227500D02*
D03*
X34527502Y3227500D02*
D03*
X33527502Y5227500D02*
D03*
X34527502Y7227500D02*
D03*
X35527502Y5227500D02*
D03*
X38527502Y3227500D02*
D03*
X37527502Y5227500D02*
D03*
X38527502Y7227500D02*
D03*
X37527502Y9227500D02*
D03*
X39527502Y1227500D02*
D03*
Y5227500D02*
D03*
X40527502Y7227500D02*
D03*
X39527502Y9227500D02*
D03*
X41785001Y2937500D02*
D03*
X20507501Y1200000D02*
D03*
X20522501Y3750000D02*
D03*
X4407500Y1200000D02*
D03*
X6707501D02*
D03*
X9007500D02*
D03*
X4407501Y3600000D02*
D03*
X6707501D02*
D03*
X9007501D02*
D03*
X13607501Y1200000D02*
D03*
X15907501D02*
D03*
X18207501D02*
D03*
Y3600000D02*
D03*
X15907501D02*
D03*
X13607501D02*
D03*
X27407501Y1200000D02*
D03*
X29707501D02*
D03*
X32007501Y3600000D02*
D03*
X29707501D02*
D03*
X27407501D02*
D03*
X13614484Y6001267D02*
D03*
X15914484D02*
D03*
X18214484D02*
D03*
X20514484D02*
D03*
X22814484D02*
D03*
X24986981Y5901047D02*
D03*
X15910982Y8401047D02*
D03*
X13614484D02*
D03*
X18214482D02*
D03*
X20514482D02*
D03*
X22814482D02*
D03*
X25114482D02*
D03*
X29714481Y6001268D02*
D03*
X32014481D02*
D03*
X34314481D02*
D03*
X29714484Y8401267D02*
D03*
X32014484D02*
D03*
X34314484D02*
D03*
X36237500Y7212500D02*
D03*
X20826241Y3117500D02*
D03*
X27297501Y7375000D02*
D03*
X32035001Y9377500D02*
D03*
X1912501Y3475000D02*
D03*
X4150001Y6167500D02*
D03*
X36345001Y5357500D02*
D03*
X36657501D02*
D03*
X32037500Y10945000D02*
D03*
X32050000Y1665001D02*
D03*
X34242502Y1817500D02*
D03*
X41862500Y3315000D02*
D03*
X20330817Y4160816D02*
D03*
X36542502Y6607948D02*
D03*
X24964999Y6340000D02*
D03*
X4213751Y11097500D02*
D03*
X4382501D02*
D03*
X4045001D02*
D03*
X4382501Y11265000D02*
D03*
X4213751D02*
D03*
X4045001D02*
D03*
X36941251Y3622500D02*
D03*
X38020001Y2902500D02*
D03*
X38417502Y2152500D02*
D03*
X37277502Y2062500D02*
D03*
X36597501Y2075000D02*
D03*
X36450000Y1537500D02*
D03*
X36684921Y4065080D02*
D03*
X41072501Y6582500D02*
D03*
X37087500Y10585000D02*
D03*
X40995001Y8985000D02*
D03*
X20550002Y1665000D02*
D03*
X41687500Y10585000D02*
D03*
X25305000Y10405000D02*
D03*
X36542502Y9007500D02*
D03*
X11242501Y1807500D02*
D03*
Y4207500D02*
D03*
X34242499D02*
D03*
X29750000Y1665000D02*
D03*
X9050001D02*
D03*
X15950002D02*
D03*
X18250002D02*
D03*
X27450000Y4065000D02*
D03*
X29750000Y4065000D02*
D03*
X32050000Y4065000D02*
D03*
X27450000Y1665000D02*
D03*
X6750001D02*
D03*
X13650002Y4065000D02*
D03*
X15950002Y4065000D02*
D03*
X18250002Y4065000D02*
D03*
X13650002Y1665000D02*
D03*
X32050000Y6465000D02*
D03*
X34350000D02*
D03*
X4450001Y4065000D02*
D03*
X6750001Y4065000D02*
D03*
X9050001Y4065000D02*
D03*
X4450001Y1665000D02*
D03*
X20550002Y6465000D02*
D03*
X22850002D02*
D03*
X29750000Y8865000D02*
D03*
X32050000Y8865000D02*
D03*
X34350000Y8865000D02*
D03*
X29750000Y6465000D02*
D03*
X18250002D02*
D03*
X15950002D02*
D03*
X13650002D02*
D03*
X25150002Y8865000D02*
D03*
X22850002Y8865000D02*
D03*
X20550002Y8865000D02*
D03*
X18250002Y8865000D02*
D03*
X15950002Y8865000D02*
D03*
X13650002Y8865000D02*
D03*
X30347501Y10182500D02*
D03*
X25747501D02*
D03*
X25627499Y10295000D02*
D03*
X17960001Y11365000D02*
D03*
X18352501Y10246250D02*
D03*
X18687502Y10585000D02*
D03*
X15660001Y11365000D02*
D03*
X16052501Y10246250D02*
D03*
X16387502Y10585000D02*
D03*
X24860001Y11365000D02*
D03*
X22560001D02*
D03*
X22952501Y10246250D02*
D03*
X23287502Y10585000D02*
D03*
X34060001Y11365000D02*
D03*
X34452502Y10246250D02*
D03*
X34787500Y10585000D02*
D03*
X36360001Y11365000D02*
D03*
X36752502Y10246250D02*
D03*
X20260001Y11365000D02*
D03*
X20652501Y10246250D02*
D03*
X20987502Y10585000D02*
D03*
X38660001Y11365000D02*
D03*
X39052502Y10246250D02*
D03*
X39387500Y10585000D02*
D03*
X40960001Y11365000D02*
D03*
X41352502Y10246250D02*
D03*
X41352502Y7846250D02*
D03*
X41687500Y8185000D02*
D03*
X41352502Y5446250D02*
D03*
X41687500Y5785000D02*
D03*
X13360001Y11365000D02*
D03*
X13752501Y10246250D02*
D03*
X14087502Y10585000D02*
D03*
X36870001Y2611250D02*
D03*
X38020001Y2407500D02*
D03*
X41367499Y3462500D02*
D03*
X38142502Y2530000D02*
D03*
X40201251Y2270920D02*
D03*
X38615002Y1255000D02*
D03*
X38945001Y1630000D02*
D03*
X40452499Y4022500D02*
D03*
X40342499Y4080000D02*
D03*
X41432501Y3647500D02*
D03*
X36962500Y11467500D02*
D03*
X21572501Y2697500D02*
D03*
X25113750Y6720450D02*
D03*
X25209044Y7995957D02*
D03*
X24926579Y8018421D02*
D03*
X25079044Y7995957D02*
D03*
X25412500Y6785800D02*
D03*
X25328751Y6781250D02*
D03*
X37182501Y6202500D02*
D03*
X37102499D02*
D03*
X37022501D02*
D03*
X36942499D02*
D03*
X36807501D02*
D03*
X36727499D02*
D03*
X36647501D02*
D03*
X27092499Y6845000D02*
D03*
X27042499Y6775000D02*
D03*
X25583749Y6873750D02*
D03*
X25248750Y6781250D02*
D03*
X27232501Y7128300D02*
D03*
X27167502Y7077500D02*
D03*
X24872501Y6780000D02*
D03*
X25033749Y6771250D02*
D03*
X24953751D02*
D03*
X39603299Y2293300D02*
D03*
X36963751Y11671250D02*
D03*
X37062500Y11408300D02*
D03*
X38622501Y9960000D02*
D03*
X41350000Y8967500D02*
D03*
X2275001Y6052500D02*
D03*
X970001Y6372500D02*
D03*
X895001Y4712500D02*
D03*
X38115002Y2247500D02*
D03*
X37707501Y2525000D02*
D03*
X36870001Y2761250D02*
D03*
X41435001Y4512500D02*
D03*
X41375003Y455000D02*
D03*
X41447501Y1962500D02*
D03*
X37182501Y2215000D02*
D03*
X37473752Y2406250D02*
D03*
X1727552Y5749950D02*
D03*
X2090001Y5470000D02*
D03*
X2679065Y6052500D02*
D03*
X3377501Y5092500D02*
D03*
X3602501Y6165000D02*
D03*
X3227501Y5674600D02*
D03*
X2687501Y5092500D02*
D03*
X3070001Y6045000D02*
D03*
X3602501Y5200500D02*
D03*
X36345001Y5537500D02*
D03*
X36982501Y5210000D02*
D03*
X36917502Y5260000D02*
D03*
X37047501D02*
D03*
X37112500Y5210000D02*
D03*
X36722501D02*
D03*
X36787500Y5260000D02*
D03*
X36852502Y5210000D02*
D03*
X36592502D02*
D03*
X25737500Y2750000D02*
D03*
X25475002Y7990000D02*
D03*
X25280000Y8040000D02*
D03*
X25345001Y7990000D02*
D03*
X25020001Y8040000D02*
D03*
X25150002D02*
D03*
X2647501Y2387500D02*
D03*
X36930002Y10155000D02*
D03*
X41030002Y8372500D02*
D03*
X39230002Y10166240D02*
D03*
X32187500Y10945000D02*
D03*
X38670062Y10815314D02*
D03*
X41130002Y9956250D02*
D03*
X41530002Y6745001D02*
D03*
X41530002Y10155000D02*
D03*
X34630002Y10155000D02*
D03*
X13930000Y10155000D02*
D03*
X16230000D02*
D03*
X18530000Y10155000D02*
D03*
X20830000Y10155000D02*
D03*
X23130000Y10155000D02*
D03*
X38485001Y11422500D02*
D03*
X40820001Y8870000D02*
D03*
Y6470000D02*
D03*
X38520001Y11270000D02*
D03*
X36220001D02*
D03*
X33920001D02*
D03*
X18530000Y10850000D02*
D03*
X18435001Y11272500D02*
D03*
X18432501Y11090000D02*
D03*
X18252499Y10496251D02*
D03*
X18110001Y10737500D02*
D03*
X18030000Y10772500D02*
D03*
X17922501Y10762500D02*
D03*
X16230000Y10850000D02*
D03*
X16135001Y11272500D02*
D03*
X16132501Y11090000D02*
D03*
X15952499Y10496251D02*
D03*
X15810001Y10737500D02*
D03*
X15730000Y10772500D02*
D03*
X15622501Y10762500D02*
D03*
X25335001Y11272500D02*
D03*
X25332501Y11090000D02*
D03*
X25145000Y10496251D02*
D03*
X25010001Y10737500D02*
D03*
X24930000Y10772500D02*
D03*
X24822501Y10762500D02*
D03*
X23130000Y10850000D02*
D03*
X23035001Y11272500D02*
D03*
X23032501Y11090000D02*
D03*
X22852499Y10496251D02*
D03*
X22710001Y10737500D02*
D03*
X22630000Y10772500D02*
D03*
X22522501Y10762500D02*
D03*
X34630002Y10850000D02*
D03*
X34535001Y11272500D02*
D03*
X34532501Y11090000D02*
D03*
X34352499Y10496251D02*
D03*
X34210001Y10737500D02*
D03*
X34130002Y10772500D02*
D03*
X34022501Y10762500D02*
D03*
X36930002Y10850000D02*
D03*
X36835001Y11272500D02*
D03*
X36832501Y11090000D02*
D03*
X36652499Y10496251D02*
D03*
X36510001Y10737500D02*
D03*
X36430002Y10772500D02*
D03*
X36322501Y10762500D02*
D03*
X20830000Y10850000D02*
D03*
X20735001Y11272500D02*
D03*
X20732501Y11090000D02*
D03*
X20552499Y10496251D02*
D03*
X20410001Y10737500D02*
D03*
X20330000Y10772500D02*
D03*
X20222501Y10762500D02*
D03*
X39230002Y10850000D02*
D03*
X39135001Y11272500D02*
D03*
X39132501Y11090000D02*
D03*
X38952499Y10496251D02*
D03*
X38810001Y10737500D02*
D03*
X38730002Y10772500D02*
D03*
X41530002Y10850000D02*
D03*
X41435001Y11272500D02*
D03*
X41432501Y11090000D02*
D03*
X41252499Y10496251D02*
D03*
X41110001Y10737500D02*
D03*
X41030002Y10772500D02*
D03*
X40922501Y10762500D02*
D03*
X41530002Y8450000D02*
D03*
X41432501Y8690000D02*
D03*
X41252502Y8096251D02*
D03*
X41110001Y8337500D02*
D03*
X40922501Y8362500D02*
D03*
X41530002Y6050000D02*
D03*
X41435001Y6472500D02*
D03*
X41432501Y6290000D02*
D03*
X41252502Y5696250D02*
D03*
X41110001Y5937500D02*
D03*
X41030002Y5972500D02*
D03*
X40922501Y5962500D02*
D03*
X13930000Y10850000D02*
D03*
X13835001Y11272500D02*
D03*
X13832501Y11090000D02*
D03*
X13652501Y10496251D02*
D03*
X13510001Y10737500D02*
D03*
X13430000Y10772500D02*
D03*
X13322501Y10762500D02*
D03*
%TF.MD5,8c1012a1d6222421aaba14175b38545f*%
M02*
